<?xml version="1.0" standalone="no"?>
<!DOCTYPE svg PUBLIC "-//W3C//DTD SVG 1.1//EN" "http://www.w3.org/Graphics/SVG/1.1/DTD/svg11.dtd" >
<svg xmlns="http://www.w3.org/2000/svg" xmlns:xlink="http://www.w3.org/1999/xlink" version="1.1">
<metadata>
Created by FontForge 20141024 at Mon Mar  2 19:03:04 2015
 By System Administrator
(c) 2008 Microsoft Corporation. All Rights Reserved.
</metadata>
<defs>
<font id="Aquarion" horiz-adv-x="516" >
  <font-face 
    font-family="Aquarion"
    font-weight="400"
    font-stretch="normal"
    units-per-em="2048"
    panose-1="2 14 5 2 3 3 3 2 2 4"
    ascent="1484"
    descent="-564"
    x-height="948"
    cap-height="1302"
    bbox="-112 -525 2048 1690"
    underline-thickness="20"
    underline-position="-123"
    unicode-range="U+000D-E000"
  />
<missing-glyph horiz-adv-x="748" 
d="M68 0v1365h544v-1365h-544zM136 68h408v1229h-408v-1229z" />
    <glyph glyph-name=".notdef" horiz-adv-x="748" 
d="M68 0v1365h544v-1365h-544zM136 68h408v1229h-408v-1229z" />
    <glyph glyph-name="glyph1" horiz-adv-x="444" 
 />
    <glyph glyph-name="glyph1" horiz-adv-x="444" 
 />
    <glyph glyph-name="uni000D" unicode="&#xd;" horiz-adv-x="444" 
 />
    <glyph glyph-name="space" unicode=" " horiz-adv-x="444" 
 />
    <glyph glyph-name="exclam" unicode="!" 
d="M120 130q0 -58 33 -96t90 -38q64 0 106.5 42t42.5 108q0 54 -34 91.5t-87 37.5q-68 0 -109.5 -42.5t-41.5 -102.5zM170 1154q0 172 117 172q89 0 89 -161q0 -65 -13.5 -138.5t-27 -127t-20.5 -136.5t6 -166q4 -20 -2.5 -39.5t-26.5 -27.5q-23 -8 -39.5 -0.5t-25.5 26.5
t-15.5 44.5t-7.5 53t-2 53t1 44.5v6.5v6v5.5q0 103 -16.5 226t-16.5 159z" />
    <glyph glyph-name="quotedbl" unicode="&#x22;" horiz-adv-x="926" 
d="M141 1268q0 155 131 155q99 0 99 -145q0 -58 -15 -124.5t-30 -114.5t-23 -123t6 -150q5 -17 -2.5 -35t-28.5 -25q-19 -6 -34 -3.5t-25 11.5t-18 22.5t-12 31t-7 36t-3.5 37t-1 35.5t0.5 31v14q0 91 -18.5 202t-18.5 145zM535 1263q0 155 131 155q99 0 99 -145
q0 -58 -15 -124.5t-30 -114.5t-23 -123t6 -150q5 -17 -2.5 -35t-28.5 -25q-19 -6 -34 -3.5t-25 11.5t-18 22.5t-12 31t-7 36t-3.5 37t-1 35.5t0.5 31v14q0 90 -18.5 202t-18.5 145z" />
    <glyph glyph-name="numbersign" unicode="#" horiz-adv-x="1033" 
d="M38 479q0 61 128 61h88q18 49 55.5 139.5t45.5 110.5h-86q-48 0 -86.5 14.5t-38.5 51.5q0 16 9 27.5t20.5 16.5t32 8t32 3.5t31.5 0.5h135q65 175 94 321q6 31 20.5 52.5t36.5 21.5q18 0 28.5 -10t12.5 -26.5t1 -30.5t-4 -29q-29 -131 -95 -299l255 5q63 158 96 316
q4 28 19 51t37 23q18 0 28.5 -10t12.5 -26.5t1 -30.5t-4 -29q-28 -125 -94 -294h21q128 0 128 -61q0 -66 -128 -66h-71q-9 -25 -29.5 -73.5t-27.5 -65.5q-33 -65 -44 -111h66q133 0 133 -61q0 -62 -126 -62h-123q-70 -186 -121 -343q-9 -25 -13.5 -35.5t-16.5 -24.5t-27 -14
q-19 0 -29.5 11t-11 28.5t1.5 33t7 29.5q53 170 117 315h-256q-59 -151 -122 -343q-6 -18 -9.5 -26.5t-11 -22t-17.5 -19.5t-23 -6q-59 0 -28 102q50 158 117 315h-39q-128 0 -128 62zM349 540h256q13 36 32 83q14 34 65 167h-253q-7 -18 -27 -66.5t-29 -72.5
q-24 -47 -44 -111z" />
    <glyph glyph-name="dollar" unicode="$" horiz-adv-x="909" 
d="M130 164q5 30 13.5 43t32.5 13q16 0 28 -8.5t24 -22.5t19 -20q72 -38 155 -38q0 52 3 164t3 168q-155 61 -216.5 125.5t-61.5 168.5q0 90 71.5 168.5t200.5 85.5h6v7q0 147 -11 305h121q-11 -169 -11 -305h6q46 -3 88 -11t86 -24.5t70.5 -46t26.5 -68.5q-3 -17 -6.5 -26
t-13 -16.5t-25.5 -7.5t-27 7t-22.5 19t-22.5 18q-60 39 -160 39v-310q159 -65 218 -133.5t59 -169.5q0 -239 -271 -262q0 -272 5 -294h-121q5 22 5 288q-43 0 -85.5 6.5t-87 21.5t-72 45t-27.5 71zM269 774q0 -28 12 -50.5t36.5 -40t42.5 -26.5t48 -22v260
q-65 -11 -102 -44.5t-37 -76.5zM513 143q64 11 98 45t34 81q0 52 -33 84.5t-99 65.5v-276z" />
    <glyph glyph-name="percent" unicode="%" horiz-adv-x="1033" 
d="M77 1060q0 113 65.5 182.5t152.5 69.5q94 0 148 -61.5t54 -167.5q0 -107 -58.5 -180.5t-159.5 -73.5q-79 0 -140.5 62.5t-61.5 168.5zM144.5 33.5q-4.5 19.5 0.5 35t17 38.5q30 63 70.5 138.5t67 121t83.5 141t75 125.5q80 131 123 204t102 188.5t98 215.5q10 31 31 53.5
t50 11.5q45 -11 13 -104q-17 -46 -41.5 -98t-42.5 -88t-55 -100t-50.5 -86.5t-59.5 -97.5t-53 -87q-193 -322 -318 -580q-16 -32 -38.5 -52.5t-47.5 -8.5q-20 10 -24.5 29.5zM155 1077q0 -72 34.5 -131.5t99.5 -59.5t100.5 56.5t35.5 123.5q-2 71 -37 130.5t-99 59.5
q-65 0 -99.5 -56t-34.5 -123zM551 230q0 113 65.5 182.5t152.5 69.5q94 0 148 -61.5t54 -167.5q0 -107 -58.5 -180.5t-159.5 -73.5q-79 0 -140.5 62.5t-61.5 168.5zM629 247q0 -72 34.5 -131.5t99.5 -59.5t100.5 56.5t35.5 123.5q-2 71 -37 130.5t-99 59.5q-65 0 -99.5 -56
t-34.5 -123z" />
    <glyph glyph-name="ampersand" unicode="&#x26;" horiz-adv-x="1396" 
d="M95 318q0 325 300 451v5q-177 134 -177 272q0 70 28.5 125t76.5 87.5t105 49t118 16.5q38 0 76 -5.5t79 -19t67 -41t26 -65.5q0 -27 -17.5 -46t-43.5 -19q-27 0 -55.5 18.5t-61.5 37t-70 18.5q-65 0 -113 -41t-48 -105q0 -37 15.5 -71t37 -58t56.5 -49t63 -40t68 -36
t60 -33q117 -61 328 -274h6q44 65 44 267h189q0 -69 -52 -184t-104 -166q55 -47 169 -202.5t121 -209.5h-217q-4 29 -75 137.5t-97 124.5q-51 -61 -88 -99.5t-86 -78.5t-97 -62t-110.5 -36t-136.5 -14q-163 0 -273.5 90.5t-110.5 255.5zM279 389q0 -127 77 -202t201 -75
q164 0 373 233v11q-62 63 -103 102.5t-102.5 94t-121 94t-117.5 64.5q-207 -89 -207 -322z" />
    <glyph glyph-name="quotesingle" unicode="'" horiz-adv-x="521" 
d="M141 1268q0 155 131 155q99 0 99 -145q0 -58 -15 -124.5t-30 -114.5t-23 -123t6 -150q5 -17 -2.5 -35t-28.5 -25q-19 -6 -34 -3.5t-25 11.5t-18 22.5t-12 31t-7 36t-3.5 37t-1 35.5t0.5 31v14q0 91 -18.5 202t-18.5 145z" />
    <glyph glyph-name="parenleft" unicode="(" horiz-adv-x="723" 
d="M84 472q0 145 22 280.5t69 268.5t131 249t198 200q92 71 128 22q40 -40 -49 -117q-95 -84 -139 -155q-193 -297 -193 -748q0 -147 34.5 -295t113 -289.5t189.5 -228.5q16 -13 22.5 -19t20 -21.5t17 -26.5t2.5 -26.5t-12 -29.5q-43 -54 -211 72q-92 74 -160.5 175.5
t-107 216.5t-57 232t-18.5 240z" />
    <glyph glyph-name="parenright" unicode=")" horiz-adv-x="723" 
d="M98 -401q0 15 5 26.5t17 25.5t20.5 21t22.5 18q110 87 187 227t111.5 287t34.5 293q-2 122 -20.5 244.5t-55.5 245t-102 229.5t-150 175q-14 11 -23 19t-21 21.5t-17 24.5t-4.5 25t10.5 26q45 46 132 -23q416 -292 416 -987q0 -167 -31 -316.5t-111.5 -296.5t-204.5 -244
q-1 -1 -16.5 -12.5t-22.5 -16.5t-23.5 -16.5t-27 -17t-26.5 -13.5t-27.5 -10t-24 -3t-22 4t-16.5 15q-10 14 -10 29z" />
    <glyph glyph-name="asterisk" unicode="*" horiz-adv-x="1033" 
d="M102 1111q0 51 28 88.5t57 37.5q30 0 78.5 -34t168.5 -132l-28 -72q-44 5 -98.5 9.5t-78 7t-47 6.5t-37.5 10q-43 11 -43 79zM177 740q0 35 37.5 67t161.5 112q23 16 36 24l61 -50q-14 -33 -31 -72.5t-26 -60.5t-20 -46t-18 -36.5t-16.5 -22.5t-18.5 -15t-20 -4
q-52 0 -99 33.5t-47 70.5zM428 1366q0 33 35.5 52.5t75.5 19.5q52 0 76.5 -17t24.5 -55q0 -9 -1.5 -20t-3.5 -21t-7 -26t-8.5 -27.5t-12 -34.5t-14 -37t-17.5 -45.5t-19 -50.5l-78 6q-7 30 -18 78t-15 65.5t-9.5 44t-7 41t-1.5 27.5zM539 893l68 39q33 -31 71.5 -66.5
t57 -52.5t37 -36t25 -31.5t6.5 -25.5q0 -35 -43.5 -76.5t-89.5 -41.5q-45 0 -68 56t-64 235zM607 1071q38 21 78.5 44t61.5 35.5t42.5 24t35.5 16t25 4.5q39 0 65 -46t26 -93q0 -41 -30.5 -57t-96.5 -16q-55 0 -191 16z" />
    <glyph glyph-name="plus" unicode="+" horiz-adv-x="1033" 
d="M106 511q0 22 12 35.5t34.5 19t37.5 6.5t39 1h222v239q0 128 62 128q25 0 40.5 -23t20 -49t4.5 -56v-239h223q26 0 42 -1.5t37.5 -7t32 -19t10.5 -34.5q0 -23 -10.5 -38t-31 -20.5t-36.5 -6.5t-39 -1h-228v-239q0 -128 -65 -128q-62 0 -62 134v233h-222q-24 0 -39 1.5
t-37.5 6.5t-34.5 20t-12 38z" />
    <glyph glyph-name="comma" unicode="," 
d="M88 -311q155 174 155 310q0 4 -1 11t-10.5 20t-26.5 17q-44 14 -64.5 38.5t-20.5 67.5q0 51 34.5 84t88.5 33q83 0 133 -55.5t50 -143.5q0 -83 -67 -212q-62 -106 -211 -236z" />
    <glyph glyph-name="hyphen" unicode="-" 
d="M37 509q0 57 63 57h315q69 0 69 -57q0 -62 -69 -62h-315q-63 0 -63 62z" />
    <glyph glyph-name="period" unicode="." 
d="M120 130q0 58 40 101q41 44 111 44q57 0 89.5 -36t32.5 -92q0 -60 -40 -104q-39 -45 -109 -45q-57 0 -90.5 38t-33.5 94z" />
    <glyph glyph-name="slash" unicode="/" horiz-adv-x="547" 
d="M53 -180q26 171 78 387t98.5 382t89.5 374t56 383q13 111 73 111q8 -1 14.5 -4t11.5 -6.5t9 -10t6.5 -11.5t4 -14t2.5 -14t1.5 -15.5t0.5 -14.5v-14.5v-12.5q-27 -223 -91 -494.5t-132 -550t-100 -491.5q-5 -42 -24 -75.5t-53 -30.5q-59 13 -45 122z" />
    <glyph glyph-name="zero" unicode="0" horiz-adv-x="1125" 
d="M17 617q0 110 21 211t66 189t110 152.5t158 102t204 37.5q110 0 200 -36t151 -97t102 -144t59.5 -175t18.5 -193q0 -194 -65 -349.5t-194 -248.5t-301 -93q-167 0 -288.5 84t-181.5 228.5t-60 331.5zM193 669q0 -78 11.5 -155t39 -155.5t69.5 -138t108.5 -97t149.5 -37.5
q94 0 166 46t112.5 123.5t60.5 167.5t20 189q-1 79 -12 155.5t-38 157.5t-68 141t-108 96.5t-152 32.5q-67 0 -123 -23.5t-94.5 -64.5t-66.5 -92.5t-44 -112t-23.5 -118t-7.5 -115.5z" />
    <glyph glyph-name="one" unicode="1" horiz-adv-x="716" 
d="M124 978q-26 40 0.5 79t72.5 67q80 54 257 184h96q-18 -767 0 -1311h-167q15 268 15 1093q-7 -5 -29.5 -22.5t-40.5 -30.5t-44.5 -31t-48 -28t-44 -17t-40 -2.5t-27.5 19.5z" />
    <glyph glyph-name="two" unicode="2" horiz-adv-x="946" 
d="M53 95q0 23 5.5 44t21 42.5t28.5 37t43 39.5t48 37.5t59.5 43.5t63.5 46q205 157 303.5 283t98.5 248q0 105 -73.5 172.5t-190.5 67.5q-148 0 -206 -78q-9 -11 -12 -15t-11.5 -13.5t-13.5 -13t-13.5 -9.5t-15.5 -7.5t-16 -1t-18 3.5q-20 5 -31.5 29t-1.5 57
q27 83 113 141.5t232 58.5q192 0 308.5 -105t116.5 -270q0 -176 -170 -370t-506 -418q132 -15 296 -14t365 32l-1 -163h-800q-22 43 -22 95z" />
    <glyph glyph-name="three" unicode="3" horiz-adv-x="995" 
d="M122 115q281 18 434 113q77 46 120 103t43 115q0 70 -28 115.5t-85 76.5q-43 23 -88 32t-113 12.5t-92 6.5q-38 8 -38 62q0 57 56 57q78 5 131 14t111 35q112 58 112 153q0 91 -68 124q-72 39 -219 39q-119 0 -197 -22l11 129q84 28 259 28q160 0 259 -73q90 -67 90 -169
q0 -201 -214 -271v-11q112 -16 192 -107q79 -79 79 -208q0 -180 -187 -332q-188 -147 -529 -163z" />
    <glyph glyph-name="four" unicode="4" horiz-adv-x="1092" 
d="M99 574q0 9 25.5 51.5t87 129.5t144.5 193q27 36 70.5 98t72 100.5t64 80t67 62t59.5 20.5q36 0 59 -14t33 -42.5t12.5 -53t2.5 -63.5q0 -85 0.5 -279.5t-0.5 -266.5h61q37 0 60 -3t42.5 -17t19.5 -40q0 -17 -2 -25.5t-11 -20.5t-32 -18.5t-61 -8.5h-82v-457h-141v457
h-534zM249 590q240 0 401 6q0 189 12 581h-12q0 -32 -200 -297q-201 -266 -201 -284v-6z" />
    <glyph glyph-name="five" unicode="5" horiz-adv-x="1006" 
d="M160 40l34 141q55 -40 122.5 -57t133 -11t128.5 33t110.5 69.5t76.5 105.5t29 135q0 106 -86.5 168t-216.5 62q-76 0 -159 -16.5t-88 -16.5q-50 0 -50 51v583h516q25 0 40 -1t38 -6t34.5 -19t11.5 -35q0 -62 -124 -62h-387v-365q136 22 209 22q180 0 286 -94.5
t106 -254.5q0 -225 -157.5 -362t-393.5 -132q-58 0 -111 15t-77.5 29t-24.5 18z" />
    <glyph glyph-name="six" unicode="6" horiz-adv-x="1130" 
d="M132 509q0 115 18.5 223.5t63 214.5t110.5 184.5t169 127t231 48.5q109 0 109 -66q0 -38 -15 -51t-47 -13q-203 0 -324.5 -118t-149.5 -385q116 132 325 132q164 0 267.5 -116t103.5 -284q0 -86 -29.5 -164t-83 -138t-137 -96t-184.5 -36q-85 0 -156 28.5t-120.5 78
t-84 117.5t-50.5 146.5t-16 166.5zM297 564q-7 -93 3 -173.5t39.5 -147.5t87.5 -106t139 -39q114 0 184.5 85t70.5 195q-5 141 -82 221t-214 80q-140 0 -228 -115z" />
    <glyph glyph-name="seven" unicode="7" horiz-adv-x="968" 
d="M116 1225q0 10 2.5 18t8.5 14t10.5 10t15 6.5t16 4.5t18.5 2.5t17.5 0.5h18.5h15h616q8 -63 0 -128q-9 -48 -55 -128t-126 -213.5t-140 -256.5q-67 -128 -124 -278t-77 -277h-171q0 185 571 1159h-505q-18 0 -28.5 0.5t-28.5 4t-28 10t-18 19.5t-8 32z" />
    <glyph glyph-name="eight" unicode="8" horiz-adv-x="1127" 
d="M140 333q0 110 74.5 207.5t202.5 149.5v10q-199 129 -199 303q0 137 101.5 221t253.5 84q147 0 251.5 -80t104.5 -203q0 -91 -58.5 -174t-157.5 -117v-11q283 -164 283 -378q0 -171 -126 -271.5t-309 -100.5q-80 0 -154.5 24.5t-134.5 68.5t-96 113.5t-36 153.5zM303 355
q0 -120 76.5 -189t193.5 -69q106 0 185.5 62.5t79.5 162.5q0 88 -74.5 168.5t-223.5 158.5q-112 -43 -174.5 -121t-62.5 -173zM371 1031q0 -154 231 -263q173 79 173 235q-4 89 -62 140.5t-146 51.5q-76 0 -136 -46.5t-60 -117.5z" />
    <glyph glyph-name="nine" unicode="9" horiz-adv-x="1123" 
d="M134 874q0 192 119 313t315 121q185 0 306 -143.5t121 -391.5q0 -113 -20.5 -224t-65.5 -214.5t-108.5 -182.5t-156 -126.5t-201.5 -47.5q-43 0 -86 9t-65.5 18t-22.5 13l28 129q82 -37 166 -37q76 0 137.5 32.5t100 83.5t65.5 119.5t39 132.5t16 131h-6
q-89 -129 -315 -129q-111 0 -195.5 55.5t-127.5 144t-43 194.5zM298.5 892.5q1.5 -115.5 78.5 -198.5q47 -61 136 -82.5t178.5 6t135.5 98.5q0 247 -80 361q-44 65 -114 91.5t-142 9t-120 -76.5q-74 -93 -72.5 -208.5z" />
    <glyph glyph-name="colon" unicode=":" 
d="M120 130q0 58 40 101q41 44 111 44q57 0 89.5 -36t32.5 -92q0 -60 -40 -104q-39 -45 -109 -45q-57 0 -90.5 38t-33.5 94zM120 812q0 58 40 101q41 44 111 44q57 0 89.5 -36t32.5 -92q0 -60 -40 -104q-39 -45 -109 -45q-57 0 -90.5 38t-33.5 94z" />
    <glyph glyph-name="semicolon" unicode=";" 
d="M88 -320q150 175 150 316q0 39 -33 51q-44 12 -64 36.5t-20 69.5q0 50 34 83t89 33q83 0 133 -56t50 -145q0 -91 -67 -210q-62 -110 -212 -238zM154 802q0 63 42.5 106.5t108.5 43.5q56 0 89 -34.5t33 -98.5q0 -57 -40 -101t-110 -44q-56 0 -89.5 40t-33.5 88z" />
    <glyph glyph-name="less" unicode="&#x3c;" horiz-adv-x="769" 
d="M141 426v167l320 327q56 56 80 69q46 26 79 -8q19 -19 23 -41t-8 -46.5t-23 -40.5t-30 -39l-243 -305l243 -305q18 -21 30 -38t23 -41t7.5 -46.5t-22.5 -41.5q-18 -21 -39 -24t-44 13t-38 30.5t-38 41.5z" />
    <glyph glyph-name="equal" unicode="=" horiz-adv-x="1033" 
d="M108 296q0 61 122 61h577q122 0 122 -61q0 -37 -38.5 -52t-83.5 -15h-577q-122 0 -122 67zM108 706q0 21 11.5 35t34 19t37.5 6t39 1h577q24 0 39 -1t37.5 -6t34 -19t11.5 -35q0 -60 -122 -60l-577 -5q-27 -1 -52 3.5t-47.5 20.5t-22.5 41z" />
    <glyph glyph-name="greater" unicode="&#x3e;" horiz-adv-x="767" 
d="M126 940q4 22 23 41q44 45 118 -21q9 -8 41 -40l320 -327v-167l-320 -328q-23 -27 -38 -41.5t-38 -30.5t-44 -13t-39 24q-19 19 -22.5 41.5t7.5 46.5t23 41t30 38l243 305l-243 305q-19 23 -30 39t-23 40.5t-8 46.5z" />
    <glyph glyph-name="question" unicode="?" horiz-adv-x="723" 
d="M161 1229q0 43 54 75.5t108 32.5q117 0 201 -81t84 -188q0 -32 -9 -66t-19 -58.5t-33.5 -60.5t-36 -52.5t-43 -56t-39.5 -50.5l-21 -190h-79l-32 207q17 28 70 93t86.5 123t33.5 111q0 60 -44 100t-114 40q-17 0 -57 -21t-58 -21t-35 19t-17 44zM213 130
q0 -59 35.5 -94.5t91.5 -35.5q65 0 108 41.5t43 103.5q0 58 -35.5 93.5t-86.5 35.5q-71 0 -113.5 -40t-42.5 -104z" />
    <glyph glyph-name="at" unicode="@" horiz-adv-x="2066" 
d="M128 444q0 193 66 381.5t195 349.5q245 306 689 306q464 0 707 -273q91 -103 139 -246t48 -296q0 -276 -141 -482q-122 -188 -354 -197q-28 0 -54 3.5t-57.5 14t-54.5 27.5t-38.5 47t-14.5 69q-77 -100 -159 -146t-183 -46q-144 0 -238 109.5t-94 291.5q0 117 44.5 222
t123 182.5t193 123.5t247.5 46q123 0 321 -35q-82 -369 -82 -658q0 -60 14.5 -83.5t73.5 -25.5q83 0 148 71.5t99 188t34 253.5q0 128 -34.5 245t-102.5 201q-188 231 -579 231q-358 0 -567 -266q-108 -138 -163.5 -298.5t-55.5 -322.5q0 -150 47 -283t136 -237t230 -165
t316 -61q161 0 289 52l23 -180q-129 -34 -318 -34q-169 0 -314.5 49.5t-250.5 136t-180 203t-111.5 251.5t-36.5 280zM765 334q4 -73 33.5 -125.5t72.5 -78t97 -28t106.5 17.5t102 65t81.5 109q6 57 53 469q-69 28 -139.5 30t-132.5 -19t-115.5 -63t-90.5 -98t-55.5 -128.5
t-12.5 -150.5z" />
    <glyph glyph-name="A" unicode="A" horiz-adv-x="1262" 
d="M4 0q0 34 263 643q50 122 120.5 290t91.5 219q5 13 17.5 47t17.5 45.5t18.5 33.5t26 30t34 15.5t48.5 7.5q25 0 44 -3.5t33.5 -13t24 -18t19 -28t14.5 -31.5t16 -40.5t17 -44.5q63 -176 196 -497q253 -613 252 -655h-213q0 58 -128 419h-582q-124 -338 -124 -419h-206z
M379 553h492q-236 593 -236 616h-17q-32 -109 -239 -616z" />
    <glyph glyph-name="B" unicode="B" horiz-adv-x="1200" 
d="M144 0q11 146 11 338t-5.5 430.5t-5.5 352.5q0 42 1 61.5t6.5 47t17.5 39t34.5 20.5t56.5 9q51 0 150.5 2.5t149.5 2.5q410 0 410 -282q0 -225 -194 -301v-10q277 -51 277 -316q0 -189 -158 -294t-447 -105q-154 0 -304 5zM300 1158q10 -88 10 -403q172 0 256.5 7.5
t137.5 37.5q99 47 99 170q0 205 -276 205q-141 0 -227 -17zM310 622q0 -173 11 -477q82 -12 158 -12q29 -1 57 1q102 6 180.5 30.5t125 79t46.5 134.5q0 249 -440 249q-26 0 -73 -2.5t-65 -2.5z" />
    <glyph glyph-name="C" unicode="C" horiz-adv-x="1125" 
d="M69 643q0 283 192 484q188 203 512 203q101 0 186 -27l-28 -155q-112 34 -203 34q-238 0 -363 -148q-120 -145 -120 -363q0 -222 143 -374q137 -153 389 -153q106 0 254 38l-17 -148q-114 -34 -264 -34q-339 0 -510 187q-171 180 -171 456z" />
    <glyph glyph-name="D" unicode="D" horiz-adv-x="1316" 
d="M151 -9q19 147 19 346v22q0 191 -8 433q-8 256 -9 378q0 67 23.5 99.5t87.5 32.5q39 0 116 2.5t114 2.5q360 0 526 -173q166 -177 168 -437q0 -285 -180 -504q-184 -219 -503 -219q-101 0 -354 17zM315 1162q11 -348 11 -481q0 -366 5 -555q72 -15 144 -15q87 -1 171 21
q156 38 239 139q130 155 130 377q0 224 -1 101q41 44 111 44q57 0 89.5 -36t32.5 -92q0 -60 -40 -104q-39 -45 -109 -45q-57 0 -90.5 38t-33.5 94zM120 812q0 58 40 101q41 44 111 44q57 0 89.5 -36t32.5 -92q0 -60 -40 -104q-39 -45 -109 -45q-57 0 -90.5 38t-33.5 94z" />
    <glyph glyph-name="semicolon" unicode=";" 
d="M88 -320q150 175 150 316q0 39 -33 51q-44 12 -64 36.5t-20 69.5q0 50 34 83t89 33q83 0 133 -56t50 -145q0 -91 -67 -210q-62 -110 -212 -238zM154 802q0 63 42.5 106.5t108.5 43.5q56 0 89 -34.5t33 -98.5q0 -57 -40 -101t-110 -44q-56 0 -89.5 40t-33.5 88z" />
    <glyph glyph-name="less" unicode="&#x3c;" horiz-adv-x="769" 
d="M141 426v167l320 327q56 56 80 69q46 26 79 -8q19 -19 23 -41t-8 -46.5t-23 -40.5t-30 -39l-243 -305l243 -305q18 -21 30 -38t23 -41t7.5 -46.5t-22.5 -41.5q-18 -21 -39 -24t-44 13t-38 30.5t-38 41.5z" />
    <glyph glyph-name="equal" unicode="=" horiz-adv-x="1033" 
d="M108 296q0 61 122 61h577q122 0 122 -61q0 -37 -38.5 -52t-83.5 -15h-577q-122 0 -122 67zM108 706q0 21 11.5 35t34 19t37.5 6t39 1h577q24 0 39 -1t37.5 -6t34 -19t11.5 -35q0 -60 -122 -60l-577 -5q-27 -1 -52 3.5t-47.5 20.5t-22.5 41z" />
    <glyph glyph-name="greater" unicode="&#x3e;" horiz-adv-x="767" 
d="M126 940q4 22 23 41q44 45 118 -21q9 -8 41 -40l320 -327v-167l-320 -328q-23 -27 -38 -41.5t-38 -30.5t-44 -13t-39 24q-19 19 -22.5 41.5t7.5 46.5t23 41t30 38l243 305l-243 305q-19 23 -30 39t-23 40.5t-8 46.5z" />
    <glyph glyph-name="question" unicode="?" horiz-adv-x="723" 
d="M161 1229q0 43 54 75.5t108 32.5q117 0 201 -81t84 -188q0 -32 -9 -66t-19 -58.5t-33.5 -60.5t-36 -52.5t-43 -56t-39.5 -50.5l-21 -190h-79l-32 207q17 28 70 93t86.5 123t33.5 111q0 60 -44 100t-114 40q-17 0 -57 -21t-58 -21t-35 19t-17 44zM213 130
q0 -59 35.5 -94.5t91.5 -35.5q65 0 108 41.5t43 103.5q0 58 -35.5 93.5t-86.5 35.5q-71 0 -113.5 -40t-42.5 -104z" />
    <glyph glyph-name="at" unicode="@" horiz-adv-x="2066" 
d="M128 444q0 193 66 381.5t195 349.5q245 306 689 306q464 0 707 -273q91 -103 139 -246t48 -296q0 -276 -141 -482q-122 -188 -354 -197q-28 0 -54 3.5t-57.5 14t-54.5 27.5t-38.5 47t-14.5 69q-77 -100 -159 -146t-183 -46q-144 0 -238 109.5t-94 291.5q0 117 44.5 222
t123 182.5t193 123.5t247.5 46q123 0 321 -35q-82 -369 -82 -658q0 -60 14.5 -83.5t73.5 -25.5q83 0 148 71.5t99 188t34 253.5q0 128 -34.5 245t-102.5 201q-188 231 -579 231q-358 0 -567 -266q-108 -138 -163.5 -298.5t-55.5 -322.5q0 -150 47 -283t136 -237t230 -165
t316 -61q161 0 289 52l23 -180q-129 -34 -318 -34q-169 0 -314.5 49.5t-250.5 136t-180 203t-111.5 251.5t-36.5 280zM765 334q4 -73 33.5 -125.5t72.5 -78t97 -28t106.5 17.5t102 65t81.5 109q6 57 53 469q-69 28 -139.5 30t-132.5 -19t-115.5 -63t-90.5 -98t-55.5 -128.5
t-12.5 -150.5z" />
    <glyph glyph-name="A" unicode="A" horiz-adv-x="1262" 
d="M4 0q0 34 263 643q50 122 120.5 290t91.5 219q5 13 17.5 47t17.5 45.5t18.5 33.5t26 30t34 15.5t48.5 7.5q25 0 44 -3.5t33.5 -13t24 -18t19 -28t14.5 -31.5t16 -40.5t17 -44.5q63 -176 196 -497q253 -613 252 -655h-213q0 58 -128 419h-582q-124 -338 -124 -419h-206z
M379 553h492q-236 593 -236 616h-17q-32 -109 -239 -616z" />
    <glyph glyph-name="B" unicode="B" horiz-adv-x="1200" 
d="M144 0q11 146 11 338t-5.5 430.5t-5.5 352.5q0 42 1 61.5t6.5 47t17.5 39t34.5 20.5t56.5 9q51 0 150.5 2.5t149.5 2.5q410 0 410 -282q0 -225 -194 -301v-10q277 -51 277 -316q0 -189 -158 -294t-447 -105q-154 0 -304 5zM300 1158q10 -88 10 -403q172 0 256.5 7.5
t137.5 37.5q99 47 99 170q0 205 -276 205q-141 0 -227 -17zM310 622q0 -173 11 -477q82 -12 158 -12q29 -1 57 1q102 6 180.5 30.5t125 79t46.5 134.5q0 249 -440 249q-26 0 -73 -2.5t-65 -2.5z" />
    <glyph glyph-name="C" unicode="C" horiz-adv-x="1125" 
d="M69 643q0 283 192 484q188 203 512 203q101 0 186 -27l-28 -155q-112 34 -203 34q-238 0 -363 -148q-120 -145 -120 -363q0 -222 143 -374q137 -153 389 -153q106 0 254 38l-17 -148q-114 -34 -264 -34q-339 0 -510 187q-171 180 -171 456z" />
    <glyph glyph-name="D" unicode="D" horiz-adv-x="1316" 
d="M151 -9q19 147 19 346v22q0 191 -8 433q-8 256 -9 378q0 67 23.5 99.5t87.5 32.5q39 0 116 2.5t114 2.5q360 0 526 -173q166 -177 168 -437q0 -285 -180 -504q-184 -219 -503 -219q-101 0 -354 17zM315 1162q11 -348 11 -481q0 -366 5 -555q72 -15 144 -15q87 -1 171 21
q156 38 239 139q130 155 130 377q0 224 -18.5 326t-4.5 273zM301 1165
q6 -111 6 -511q76 1 134 4.5t123.5 13t112 28t86.5 47t60 72.5t20 101q0 129 -87.5 193t-266.5 64q-13 0 -188 -12z" />
    <glyph glyph-name="Q" unicode="Q" horiz-adv-x="1421" 
d="M82 618q0 332 200 534q187 178 428 178q228 0 400 -167q195 -192 195 -489q0 -215 -91.5 -384t-253.5 -255v-11q60 -3 108.5 -17t83 -40t59.5 -53t44.5 -68.5t31 -74.5t24.5 -81q9 -37 9 -66q0 -88 -90 -88q-59 0 -88 87q-3 9 -18 56.5t-22.5 67t-23 55.5t-33.5 59.5
t-41 40.5q-79 61 -328 61q-230 0 -399 160q-195 185 -195 495zM260 646q0 -263 144 -416q136 -128 306 -128q160 0 279 143q138 148 138 408t-150 410q-125 127 -301 127q-160 0 -283 -139q-133 -157 -133 -405z" />
    <glyph glyph-name="R" unicode="R" horiz-adv-x="1240" 
d="M132 7q18 352 18 677.5t-18 625.5h140q98 0 178.5 2.5t90.5 2.5q221 0 329.5 -75.5t108.5 -229.5q0 -249 -243 -349v-10q23 -7 45 -19.5t40 -26.5t36.5 -37t32 -41t29.5 -48t26 -49.5t25 -54t22 -52.5t21.5 -54.5t20.5 -50.5q41 -98 41 -167q0 -71 -73 -71
q-11 0 -21.5 3.5t-19.5 12t-16.5 15.5t-15.5 21.5t-12.5 22.5t-11.5 25.5t-9 23.5t-8 23.5t-7 19.5q-64 179 -104 254q-58 109 -117 139q-68 25 -178 29q-28 1 -52 1q-75 0 -126 -9q0 -242 10 -554h-182zM298 1171q6 -117 6 -475q95 1 163.5 6t136.5 20.5t110 42t68 71.5
t26 108q0 239 -322 239q-66 0 -188 -12z" />
    <glyph glyph-name="S" unicode="S" horiz-adv-x="1047" 
d="M84 975q0 136 117 244q119 111 355 111q60 0 123.5 -8.5t134 -28.5t115.5 -62.5t45 -100.5q-4 -32 -17.5 -50.5t-43.5 -21.5q-25 0 -40.5 10t-31 28.5t-28.5 27.5q-46 31 -105.5 41t-145.5 10q-131 0 -213 -50.5t-82 -126.5q0 -24 8 -46t25.5 -42t33.5 -36t45 -33t47 -27
t52 -24.5t46.5 -20t43.5 -17.5q62 -24 109.5 -45.5t106 -57.5t97 -75t67 -95.5t31.5 -120.5v-12q-1 -186 -121 -277q-124 -94 -380 -94q-45 0 -91.5 4.5t-101.5 18t-97 34.5t-70.5 58t-28.5 84q5 37 17.5 54.5t43.5 17.5q25 0 40.5 -10t31.5 -28t29 -27q45 -31 98 -40.5
t135 -9.5q148 0 232.5 51.5t84.5 136.5q0 41 -17 75.5t-42.5 58.5t-62.5 45t-71 35.5t-74 29.5q-4 1 -6 2t-5 2l-6 2h-1l-1 1h-1l-1 1h-1h-1l-1 1h-1l-1 1h-1h-1l-1 1h-1h-1l-1 1q-170 67 -245 117q-166 110 -173 283z" />
    <glyph glyph-name="T" unicode="T" horiz-adv-x="1043" 
d="M14 1241q0 67 122 67q134 0 382.5 1t381.5 1q123 0 123 -67q0 -65 -123 -65q-52 0 -147.5 -0.5t-148.5 -0.5q0 -763 11 -1177h-184q1 109 5 284t6 301q2 90 2 199v91q-1 164 -8 302h-292q-130 0 -130 64z" />
    <glyph glyph-name="U" unicode="U" horiz-adv-x="1398" 
d="M174 844v116v94q1 82 5 160q0 36 9 60.5t23.5 35t27 14t25.5 3.5q36 0 57 -24.5t22 -93.5v-42q0 -43 -1 -97q-2 -80 -4 -144t-2 -141.5t2.5 -138.5t12.5 -127t26.5 -115.5t44.5 -96t66 -76.5t92.5 -48.5t122.5 -19.5h11q86 1 150 29q68 30 105.5 86t60.5 134t29 170
q7 94 9 198q1 48 1 95q0 57 -2 117q-1 36 -1 73q0 73 4 146q4 118 84 118t80 -105v-583q-4 -337 -132 -488t-397 -151q-147 0 -249.5 42.5t-164 130t-89 209t-27.5 289.5q0 43 -1 171z" />
    <glyph glyph-name="V" unicode="V" horiz-adv-x="1243" 
d="M44 1267q10 42 39 55q19 8 37 8q22 0 42 -12q36 -20 55 -74q88 -205 246 -591l155 -385l18 -5q0 59 172 512q30 76 84 227t90 237q8 16 15 27.5t17.5 25.5t21.5 22q10 8 24 14q11 4 24 4h7q17 -2 36 -10q39 -13 55 -44q13 -25 12 -50v-11q-4 -30 -17 -62
q-47 -125 -218 -484q-284 -600 -284 -671h-184q-29 124 -109.5 338t-184 468.5t-141.5 358.5q-15 42 -15 75q0 14 3 27z" />
    <glyph glyph-name="W" unicode="W" horiz-adv-x="2096" 
d="M52 1180q-7 28 -7 50q1 25 9 44q16 36 44 47q17 8 33 8q21 -1 43 -15q38 -24 58 -88q27 -81 98 -273.5t109 -300.5l139 -390h16q24 120 77 270.5t121 327t104 288.5q30 91 63.5 135t85.5 44q23 0 42 -11t32 -25t27 -44.5t21.5 -52.5t22.5 -67q25 -84 73 -232t73 -232
l134 -401h17q0 76 173 512q21 59 52 149t57.5 165.5t56.5 149.5q26 52 60 76q20 14 47 15q20 0 44 -8q61 -26 61 -88q0 -34 -18 -78q-19 -57 -47.5 -126t-49 -113.5t-62 -130t-56.5 -117.5q-280 -601 -280 -668h-189q0 1 -11 70q-73 260 -162 511.5t-155 404.5
q-305 -753 -374 -986h-189q0 34 -12 61q-57 207 -194 581.5t-187 537.5z" />
    <glyph glyph-name="X" unicode="X" horiz-adv-x="1269" 
d="M9 1308h305q13 -55 132.5 -242.5t170.5 -248.5h11q189 217 236 340q9 19 20 44.5t16 37t16.5 28t27.5 34.5q20 17 42 23q12 3 22 3q8 0 16 -2q16 -5 29 -14t18 -20q11 -19 10.5 -47t-7 -52.5t-16.5 -45.5q-27 -61 -76 -123.5t-125 -149.5t-130 -160v-12q5 -6 47.5 -58.5
t81 -100t95.5 -118.5t103.5 -132t91 -121.5t73 -105t35.5 -65.5h-310q-21 72 -155 269t-212 293h-11q-88 -99 -166.5 -215.5t-108.5 -178.5q-12 -24 -26.5 -60.5t-27 -60.5t-32.5 -47q-27 -22 -55 -24q-3 0 -7 -1q-24 1 -40 11q-18 12 -25 26q-11 26 -11 53q-1 11 1 21
q6 38 22 70q28 62 91 147t155 199.5t144 187.5v11q-59 63 -259.5 313.5t-211.5 293.5z" />
    <glyph glyph-name="Y" unicode="Y" horiz-adv-x="1127" 
d="M52 1277q0 52 75 52q51 0 130.5 -109t145.5 -243t113.5 -248.5t43.5 -127.5h19q1 11 47 122.5t109 248t139.5 247t127.5 110.5q73 0 73 -53q0 -58 -94 -185q-167 -250 -229 -346q-124 -217 -124 -318q0 -181 17 -427h-194q12 138 12 427q0 109 -112 335q-50 90 -218 345
q-81 124 -81 170z" />
    <glyph glyph-name="Z" unicode="Z" horiz-adv-x="1062" 
d="M54 -1l12 212q70 63 372 436q158 189 241 303.5t83 141.5v27h-542q-22 0 -34.5 0.5t-35 2.5t-37 8t-29.5 15.5t-22.5 25.5t-7.5 37q0 95 166 95h804l-12 -217q-97 -97 -362 -434q-162 -207 -236.5 -313t-74.5 -134v-22h517h11q26 0 41 -0.5t40.5 -4.5t39.5 -12t25 -25
t11 -41q0 -30 -16 -51.5t-43.5 -31.5t-53.5 -14t-55 -4h-802z" />
    <glyph glyph-name="bracketleft" unicode="[" horiz-adv-x="723" 
d="M108 -475q4 718 4 899t-4 1083q121 5 366 5q145 0 145 -72q0 -25 -14 -43t-37 -26t-44.5 -11t-44.5 -3h-200v-1689q105 12 195 12q145 0 145 -77q0 -25 -14 -43t-37 -26t-44.5 -11t-44.5 -3q-65 0 -188 2.5t-183 2.5z" />
    <glyph glyph-name="backslash" unicode="\" horiz-adv-x="547" 
d="M48 1388q0 26 13 46.5t39 20.5q26 3 42.5 -16t22 -40t8.5 -50q14 -176 55.5 -384t86 -374t98 -384t82.5 -386q1 -24 3 -49.5t-10 -47t-37 -26.5q-37 -3 -55 28.5t-24 76.5q-37 219 -161.5 736.5t-160.5 798.5q-2 24 -2 50z" />
    <glyph glyph-name="bracketright" unicode="]" horiz-adv-x="723" 
d="M102 -416q0 78 146 78q34 0 101 -3t100 -3q2 757 0 1696h-201q-146 0 -146 84q0 78 146 78q61 0 185 -3t189 -3q4 -696 1.5 -1237.5t-1.5 -760.5q-282 -11 -374 -11q-24 0 -47 4t-46.5 13t-38 26.5t-14.5 41.5z" />
    <glyph glyph-name="asciicircum" unicode="^" horiz-adv-x="1033" 
d="M41.5 664q-3.5 21 7.5 61t36 93t74.5 142.5t113.5 197.5t162 269h165q27 -45 76 -127q238 -397 287.5 -505t9.5 -167q-72 -56 -142 65l-298 572h-30l-303 -572q-12 -24 -27 -42.5t-33 -31.5t-39 -11t-40 20q-16 15 -19.5 36z" />
    <glyph glyph-name="underscore" unicode="_" horiz-adv-x="1033" 
d="M0 -458q0 21 15 35t43.5 19t47.5 6t49 1h722q26 0 41 -0.5t40 -3.5t39 -9t25 -18.5t11 -29.5q0 -24 -14 -38.5t-42.5 -20t-47.5 -7t-52 -1.5h-722q-33 0 -52 1.5t-47 7t-42 20t-14 38.5z" />
    <glyph glyph-name="grave" unicode="`" horiz-adv-x="479" 
d="M86 1335q0 36 19 56.5t53 20.5q23 0 43.5 -12t39 -36t30 -43t28.5 -51t22 -41q75 -132 76 -143h-112q0 15 -122 137l-18.5 18.5l-17.5 17.5t-13.5 15t-12 15.5t-8 13.5t-6 16t-1.5 16z" />
    <glyph glyph-name="a" unicode="a" horiz-adv-x="1005" 
d="M122 295q0 147 122 239t328 92q65 0 155 -11q-1 117 -51.5 179t-162.5 62q-98 0 -161 -32q-13 -7 -48.5 -38t-63.5 -31q-40 0 -43 48v6q1 50 33 87q34 39 90 56.5t105.5 25t98.5 7.5q353 0 353 -338v-240q0 -194 16 -407h-172v118q-125 -118 -277 -118q-144 0 -233 82.5
t-89 212.5zM283 311q0 -80 53 -126t145 -46q147 0 246 108v245q-65 11 -139 11q-305 0 -305 -192z" />
    <glyph glyph-name="b" unicode="b" horiz-adv-x="1138" 
d="M151 0q24 247 24 900q0 81 -0.5 215t-0.5 182q0 122 66 122q67 0 67 -122v-423q57 72 179 100q56 13 113 12q66 0 133 -17q124 -32 182 -117q111 -137 111 -334q0 -150 -53.5 -272t-161.5 -197.5t-253 -75.5q-128 0 -233 105q0 -6 6.5 -40t10.5 -38h-190zM307 763
q0 -412 11 -601q83 -67 200 -67q82 0 146.5 34t103.5 90.5t59 125.5t20 145q0 96 -29.5 177t-95.5 135t-159 54q-91 0 -158.5 -25t-97.5 -68z" />
    <glyph glyph-name="c" unicode="c" horiz-adv-x="925" 
d="M72 464q0 90 33 180t90 163t141.5 121.5t180.5 53.5h20q33 0 70 -4q49 -6 98 -22t81 -47.5t32 -72.5q0 -55 -44 -55q-17 0 -27 7t-20 19.5t-20 18.5q-44 27 -161 27q-129 0 -218 -108t-89 -249q0 -107 39 -194.5t120 -144t192 -62.5q98 0 156 29q11 4 21.5 16.5t22 22.5
t28.5 10q25 0 35 -13.5t10 -41.5q0 -38 -27 -67t-70 -45.5t-88 -24.5t-88 -8q-227 0 -372.5 137t-145.5 354z" />
    <glyph glyph-name="d" unicode="d" horiz-adv-x="1127" 
d="M128 516q0 184 117 332q70 88 194 120q65 17 128 16q57 0 111 -14q116 -28 171 -100q0 326 -2 420v11q0 113 63 113q72 0 72 -122q0 -976 22 -1292h-188q0 6 6.5 40t9.5 38q-56 -53 -110 -79.5t-128 -26.5q-139 0 -246.5 75.5t-163.5 198.5t-56 270zM305 489
q0 -76 20 -145t58.5 -125.5t103 -90.5t146.5 -34q125 0 199 66q17 189 17 600q-28 37 -94.5 63t-150.5 26q-136 0 -217.5 -105t-81.5 -255z" />
    <glyph glyph-name="e" unicode="e" horiz-adv-x="1051" 
d="M98 460q0 103 30 198t86.5 170.5t145.5 120.5t198 45q146 0 244.5 -77t133.5 -197q21 -71 21 -150q0 -53 -10 -110h-688q17 -186 114.5 -273t279.5 -87h20h24t24 0.5t26.5 1.5t25 3t25.5 5.5t21 8t19 10.5q9 6 19 19t20.5 18.5t30.5 5.5q39 0 39 -62q0 -41 -32.5 -70.5
t-84.5 -43t-98 -19t-90 -5.5q-130 0 -235 38.5t-171.5 105.5t-102 155t-35.5 189zM265 571h521q0 142 -61.5 218.5t-177.5 76.5q-240 0 -282 -295z" />
    <glyph glyph-name="f" unicode="f" horiz-adv-x="658" 
d="M56 849v86h118q12 124 67.5 237t151.5 188t209 75q57 0 57 -50q0 -6 -1 -12q-3 -16 -14 -23t-26.5 -8.5t-47 -13.5t-64.5 -34q-40 -30 -68.5 -57.5t-59 -70t-48 -101t-21.5 -130.5h254v-113q-113 27 -254 27q-2 -63 -2 -154q0 -128 5 -313q8 -315 31 -382h-191
q12 109 17.5 232t6.5 196v58q0 65 -1 164q-1 147 -1 199h-118z" />
    <glyph glyph-name="g" unicode="g" horiz-adv-x="1105" 
d="M39 -99q0 126 93.5 188t285.5 62q215 0 291 22t76 90q0 28 -17 55.5t-43 44.5q-86 -30 -191 -30q-16 0 -32 1q-123 5 -211 46q-69 32 -107.5 97.5t-38.5 147.5q0 158 105 257t301 99q129 0 212 -34q129 111 204 111q50 0 75 -22q21 -21 21 -49q0 -27 -23 -41
q-22 -14 -58.5 -22.5t-50.5 -16.5q-30 -17 -52 -37q68 -74 68 -178q0 -182 -145 -290v-12q52 -38 84.5 -88.5t32.5 -99.5q0 -110 -80 -145v-11q79 -17 129 -83q47 -62 47 -163v-12q-2 -102 -66 -172.5t-161 -102t-219 -31.5q-233 0 -381.5 116.5t-148.5 302.5zM188 -171
q0 -103 97 -168q102 -68 266 -68q158 0 238 63t80 184q0 114 -123 173q-161 -12 -234 -12q-192 0 -256 -39q-68 -35 -68 -133zM302 658q0 -59 26.5 -106.5t69 -72.5t94.5 -37q29 -7 58 -7q23 0 46 4q51 10 93.5 34t69 71t26.5 108q0 46 -16.5 85t-44.5 65t-64 45t-76 25
q-28 3 -56 3q-12 0 -25 -1q-40 -2 -76 -19t-64 -42t-44.5 -65.5t-16.5 -89.5z" />
    <glyph glyph-name="h" unicode="h" horiz-adv-x="1109" 
d="M157 0q15 119 19 358q3 154 3 303q-1 83 -1 165q-1 104 -1 210q0 127 2 258q0 123 72 123q21 0 35 -11.5t19 -34.5t6 -37.5t1 -39.5v-416q70 62 139.5 83.5t166.5 21.5q170 0 254.5 -79t84.5 -254v-650h-177q16 283 16 567q0 137 -50 204.5t-178 67.5q-81 0 -139 -18.5
t-117 -69.5v-98.5v-116.5t1 -108t3 -122t5.5 -105t9.5 -111.5t14 -89.5h-188z" />
    <glyph glyph-name="i" unicode="i" horiz-adv-x="446" 
d="M133 0q9 58 14 142.5t7 199.5t2 186v87v117v154q0 83 66 83q67 0 67 -83q0 -21 -1 -153q-1 -88 0 -157v-64q0 -89 2.5 -208.5t10.5 -197t20 -106.5h-188zM139 1235q0 39 23.5 66.5t70.5 27.5q34 0 55.5 -24.5t21.5 -58.5t-24 -64t-70 -30q-35 0 -56 26t-21 57z" />
    <glyph glyph-name="j" unicode="j" horiz-adv-x="446" 
d="M-112 -383q0 22 24 44t61 46.5t53 42.5q42 51 67.5 92t42 78.5t23.5 90.5t9 102.5t2 139.5v605q0 27 4.5 52t19 47.5t38.5 22.5q60 0 60 -127v-443q0 -41 0.5 -108t0.5 -94q0 -119 -8.5 -191.5t-35.5 -132.5q-61 -144 -155.5 -238.5t-145.5 -94.5q-25 0 -42.5 17.5
t-17.5 48.5zM155 1235q0 43 23.5 68.5t70.5 25.5q30 0 53 -24.5t23 -53.5q0 -38 -26.5 -65.5t-66.5 -27.5q-24 0 -40.5 8.5t-24 21.5t-10 24.5t-2.5 22.5z" />
    <glyph glyph-name="k" unicode="k" horiz-adv-x="1000" 
d="M80 -1q13 94 19 265.5t6 311.5t-1.5 385t-1.5 339q0 122 72 122q67 0 67 -122v-720h12q30 0 206 167q173 172 173 206h224q-18 -42 -108 -123.5t-179 -148.5t-143 -101v-6q40 -23 157 -143t226.5 -252.5t123.5 -179.5h-239q0 37 -191 268q-197 240 -250 240h-8h-4
q1 -35 3 -155t7 -199t18 -154h-189z" />
    <glyph glyph-name="l" unicode="l" horiz-adv-x="469" 
d="M135 0q15 140 19 394q3 190 3 361q-1 57 -1 112q-1 94 0 186q0 123 1 242q0 121 66 121q68 0 68 -121q0 -35 -1 -221q-1 -124 -1 -225q0 -51 1 -96q0 -135 2 -307.5t10.5 -288t21.5 -157.5h-189z" />
    <glyph glyph-name="m" unicode="m" horiz-adv-x="1677" 
d="M133 0q11 73 16.5 196.5t6.5 203.5v102v148q-1 170 -1 197q0 25 1.5 39.5t7 37t20 34t38.5 11.5q11 0 19.5 -2t15 -4.5t11.5 -9t8.5 -10t5.5 -13t3.5 -13.5t2 -15.5t0.5 -14.5v-15.5v-13.5h6q129 122 299 122q115 0 181 -28.5t113 -104.5q154 133 320 133
q104 0 171.5 -24.5t105.5 -78.5t52.5 -126t14.5 -182q0 -363 6 -569h-182q21 336 21 569q0 111 -46 182.5t-116 90.5q-31 8 -65 8q-41 0 -89 -12q-84 -24 -161 -90v-651q0 -28 -3 -46t-18.5 -34.5t-44.5 -16.5q-42 0 -55.5 25t-13.5 74q0 79 1 205t1 172q-1 151 -17 211.5
t-49 92.5q-55 50 -121 67q-28 7 -58 7q-42 0 -90 -14q-82 -24 -163 -92v-262.5t3.5 -210.5t10.5 -186.5t19 -88.5h-188z" />
    <glyph glyph-name="n" unicode="n" horiz-adv-x="1109" 
d="M145 0q21 113 21 492q0 157 -4 359q0 24 1.5 38.5t7.5 36t22 32t41 10.5q24 2 39 -7t20.5 -29.5t6.5 -34.5t1 -40v-4v-3v-4h6q77 73 146 106t154 33q175 0 259.5 -81t84.5 -259q0 -1 -3 -289q-1 -96 -1 -168q0 -143 4 -188h-178q17 267 17 573q0 132 -53 199.5t-186 67.5
q-141 0 -250 -95q0 -192 0.5 -283t3 -207.5t8.5 -173.5t16 -81h-184z" />
    <glyph glyph-name="o" unicode="o" horiz-adv-x="1144" 
d="M137 446q0 111 33 210.5t92.5 175.5t149.5 120.5t198 44.5q84 0 161 -33.5t137 -95t95.5 -157t35.5 -210.5q0 -148 -55.5 -269.5t-164.5 -196t-253 -74.5q-85 0 -161.5 32t-136.5 91.5t-95.5 153.5t-35.5 208zM299 480q1 -170 75 -282q76 -114 214 -114q74 0 131 36
t89 94t48 123t16 131q-2 72 -18 139.5t-47.5 128t-88 97t-130.5 36.5q-72 0 -129.5 -36.5t-91 -94.5t-51 -123.5t-17.5 -134.5z" />
    <glyph glyph-name="p" unicode="p" horiz-adv-x="1138" 
d="M121 965h183q0 -5 -4.5 -44t-4.5 -45q100 112 313 112q96 0 175 -41t128.5 -109t76 -152t26.5 -173q0 -107 -32 -204t-90 -172.5t-148 -120t-198 -44.5q-70 0 -144 33t-129 80q6 -140 6 -424q0 -118 -67 -118q-22 0 -38 11.5t-23 31t-10 37.5t-3 38q0 85 2 303.5t2 365.5
q1 14 1 28q0 137 -5 304q-5 185 -17 303zM273 184q41 -39 106 -64t127 -25q109 0 185.5 59t110 146.5t33.5 190.5q0 151 -77.5 256.5t-217.5 105.5q-165 0 -245 -88q-22 -173 -22 -581z" />
    <glyph glyph-name="q" unicode="q" horiz-adv-x="1139" 
d="M128 513q0 129 51.5 236.5t146.5 172t214 64.5q210 0 311 -112q-3 6 -8.5 45t-8.5 45h190q-6 -85 -10.5 -199t-7 -208t-3.5 -242t-1 -222.5v-234v-196.5q0 -118 -63 -118q-71 0 -71 118v423q-56 -48 -127.5 -80t-144.5 -32q-139 0 -247.5 76.5t-164.5 198.5t-56 265z
M306 491q0 -59 12 -115.5t38.5 -107.5t64 -89t92.5 -60.5t121 -22.5q65 0 128 24.5t106 63.5v110q1 42 1 73.5t-1 54.5q0 44 -1 112.5t-5 124.5t-11 105q-48 48 -105.5 68t-138.5 20q-92 0 -162 -52t-104.5 -133.5t-34.5 -175.5z" />
    <glyph glyph-name="r" unicode="r" horiz-adv-x="666" 
d="M79 0q15 80 19 243q3 105 3 207q-1 58 -1 114q-1 72 -1 144q0 87 2 176q0 83 67 83t67 -83v-62h5q41 67 103.5 114.5t141.5 47.5q77 0 178 -33l-44 -162q-79 33 -145 33q-189 0 -239 -176q-2 -91 -2 -175q1 -126 5 -238q8 -186 30 -233h-189z" />
    <glyph glyph-name="s" unicode="s" horiz-adv-x="858" 
d="M102 123q0 50 45 50q17 0 28.5 -7t23 -19.5t21.5 -18.5q60 -39 171 -39q109 0 167 42.5t58 108.5q0 24 -14 46.5t-32.5 37.5t-48 30t-51 23.5t-50.5 18.5q-3 1 -5 1.5t-4.5 1.5t-4.5 2q-41 17 -61.5 26t-58.5 28.5t-58 34.5t-47.5 40t-41.5 49.5t-24.5 58t-10.5 71.5
q0 66 30 118t79.5 83.5t109.5 47.5t124 16q45 0 91.5 -6t98 -20t84 -44.5t32.5 -73.5q0 -26 -10 -39t-34 -17q-24 0 -45 23t-27 26q-60 40 -190 40q-93 0 -152.5 -43t-59.5 -103q0 -23 15 -45.5t35 -38.5t52.5 -33.5t54 -27t53.5 -22.5q2 -1 4 -1.5t4 -1.5l4 -2
q62 -23 106.5 -46t90.5 -58.5t72.5 -85t31.5 -111.5q0 -144 -88 -207.5t-279 -63.5q-44 0 -88 6t-92.5 21t-78.5 46.5t-30 76.5z" />
    <glyph glyph-name="t" unicode="t" horiz-adv-x="735" 
d="M37 840v82h205v222q0 36 18 62t53 26q32 0 46 -29t14 -59v-222h277v-109q-139 27 -277 27q0 -57 -0.5 -157t-0.5 -142v-32q1 -223 14 -304.5t68 -82.5q29 0 54 18.5t36 37.5l11 19l111 -97q-3 -5 -9.5 -13t-29 -29t-47 -37t-64 -29t-81.5 -13q-54 0 -97.5 34t-63.5 92
q-21 58 -27 139.5t-6 240.5q0 40 0.5 157.5t0.5 197.5h-205z" />
    <glyph glyph-name="u" unicode="u" horiz-adv-x="1097" 
d="M177 234q0 38 1 282.5t1 293.5q0 35 0.5 51t2.5 39t6 33t12 21t20.5 14.5t30.5 3.5h5q12 0 22 -4q12 -4 18 -15.5t10 -22t5 -29.5t2 -30t0 -32.5t-1 -27.5q-2 -368 -2 -483v-49q3 -161 179 -161q158 0 272 77q2 110 2 214q0 291 -18 544h178q0 -1 -2 -105t-3 -138
q0 -34 -1 -136v-75v-85q2 -58 4 -141.5t6.5 -149.5t11.5 -122h-184l6 90q-135 -113 -299 -113q-12 0 -24 1q-134 0 -197.5 63.5t-63.5 191.5z" />
    <glyph glyph-name="v" unicode="v" horiz-adv-x="984" 
d="M80 848q-10 26 -10 48q0 30 19 53q17 20 39 20q11 0 23 -5q30 -14 47 -59q69 -167 289 -713h18q6 50 103 325t145 388q14 33 39 49q21 14 40 14h8q22 -4 41.5 -18.5t23.5 -43.5q1 -6 1 -13q0 -23 -11 -50q-23 -67 -121 -275q-100 -208 -176 -378q-68 -151 -67 -184
q0 -4 1 -6h-135q-22 92 -78 243t-136.5 349.5t-102.5 255.5z" />
    <glyph glyph-name="w" unicode="w" horiz-adv-x="1569" 
d="M70 861q-5 17 -5 33q1 21 9 42q16 37 54 37q46 0 72 -78q17 -43 41 -109.5t82.5 -230.5t131.5 -363h12q17 88 53.5 195.5t89 243.5t76.5 207q23 63 48 96.5t60 33.5q15 0 28 -7.5t20.5 -15.5t17.5 -29t14 -32t15 -41q4 -14 7 -21q14 -42 73 -218.5t136 -411.5h11
q1 44 90 287t160 421q27 69 76 69q35 0 53.5 -21t18.5 -49t-7 -55q-25 -67 -123 -276t-175 -379q-71 -156 -71 -185q0 -3 1 -4h-135q0 5 -3.5 25t-3.5 32q-51 187 -116 370t-115 298q-215 -522 -272 -725h-136q-1 3 -11 46q-41 155 -143 433.5t-134 381.5z" />
    <glyph glyph-name="x" unicode="x" horiz-adv-x="984" 
d="M54 950h215q10 -38 96 -177.5t116 -171.5h12q117 142 157 226q4 10 11.5 29.5t11 27.5t9.5 21t13 23.5t17 21.5q20 16 42 18q3 0 6 1q17 1 28 -7q13 -8 18 -19q8 -25 2 -60.5t-19 -61.5q-20 -41 -52.5 -82.5t-85.5 -103t-93 -113.5v-10q73 -86 215 -274.5t156 -237.5
h-215q-17 57 -112 202t-149 211h-6q-61 -75 -118.5 -162t-75.5 -128q-5 -12 -13.5 -35.5t-12.5 -33t-13 -25t-21 -29.5q-22 -19 -42 -19q-7 1 -15 3q-28 8 -32 28q-8 14 -8 36q0 28 13 70q21 45 63 105t111.5 149t102.5 134v6q-27 25 -173.5 216t-158.5 222z" />
    <glyph glyph-name="y" unicode="y" horiz-adv-x="952" 
d="M52 909v5q0 23 12 44q13 22 42 22q45 0 72 -60q15 -38 46 -114t103.5 -251t148.5 -362h11q41 144 127 365q74 190 128 392h183q0 -37 -205 -469q-88 -185 -132.5 -312.5t-54.5 -184.5q-18 -87 -36 -147.5t-43.5 -110.5t-55.5 -80.5t-74.5 -53t-98 -33t-127.5 -14.5
l-6 144q148 0 229 84q73 76 75 188q0 48 -14 99q-28 99 -161 413t-159 387q-8 23 -10 49z" />
    <glyph glyph-name="z" unicode="z" horiz-adv-x="933" 
d="M105 0l6 156q45 41 272 311q76 91 132 164.5t80.5 112.5t25.5 50l-6 22q-64 0 -193.5 0.5t-194.5 0.5q-24 0 -39 1t-37.5 6t-34 18.5t-11.5 34.5q0 72 122 71h583l-11 -161q-86 -92 -261 -315q-227 -288 -227 -323v-17h402q27 0 45.5 -3t35 -17t16.5 -40q0 -40 -38 -56
t-85 -16h-293h-289z" />
    <glyph glyph-name="braceleft" unicode="{" horiz-adv-x="944" 
d="M48 511q0 34 16 45.5t54 20.5q2 0 3 0.5t3 1t3 0.5q67 11 112.5 45.5t66 81.5t32 105.5t9 116.5t-1.5 115q-1 11 -1 16q0 166 17 236q68 274 516 224l10 -135q-321 42 -380 -191q-15 -34 -7 -201q0 -60 0.5 -120t-13.5 -118.5t-38 -106.5t-73.5 -84.5t-120.5 -51.5
q66 -3 114 -38t73.5 -84.5t40 -116t17 -121.5t0.5 -114q-8 -165 7 -201q59 -232 380 -190l-10 -135q-447 -51 -516 224q-17 68 -17 235q0 4 1 13q0 48 2.5 100.5t-6 108.5t-24 103.5t-52 85t-88.5 53.5q-10 2 -34 7t-33 7t-24.5 7.5t-21.5 12t-11 17.5t-5 26z" />
    <glyph glyph-name="bar" unicode="|" 
d="M171 -517q13 338 13 988q0 643 -13 1079h174q-12 -425 -12 -1079q0 -653 12 -988h-174z" />
    <glyph glyph-name="braceright" unicode="}" horiz-adv-x="966" 
d="M58 -354q321 -42 380 190q15 36 7 201q-2 59 0.5 114t17 121.5t40 116t73.5 84.5t114 38q-71 15 -120.5 51.5t-73.5 84.5t-38 106.5t-13.5 118.5t0.5 120q8 167 -7 201q-59 233 -380 191l10 135q448 50 516 -224q17 -70 17 -236q0 -5 -1 -16q-6 -179 13 -262
q41 -175 205 -202q50 -12 62 -22q17 -15 17 -46q0 -15 -5 -26t-11 -17.5t-21.5 -12t-24.5 -7.5t-33 -7t-34 -7q-52 -16 -88.5 -53.5t-52 -85t-24 -103.5t-6 -108.5t2.5 -100.5q1 -9 1 -13q0 -167 -17 -235q-69 -275 -516 -224z" />
    <glyph glyph-name="asciitilde" unicode="~" horiz-adv-x="1033" 
d="M0 370q163 303 358 303q61 0 183.5 -34.5t194.5 -34.5q40 0 84.5 22.5t75.5 49.5t59.5 49.5t40.5 22.5q17 0 27 -14t10 -36q0 -104 -107.5 -204.5t-226.5 -100.5q-39 0 -178.5 34t-186.5 34q-132 0 -241 -161z" />
    <glyph glyph-name="uni00A0" unicode="&#xa0;" horiz-adv-x="444" 
 />
    <glyph glyph-name="cent" unicode="&#xa2;" horiz-adv-x="1033" 
d="M116 510q0 124 53.5 237t153 190t223.5 91q0 189 -6 300h105q-5 -123 -5 -305q56 -6 103 -20.5t83 -46.5t36 -75q-4 -20 -7 -29.5t-12.5 -17.5t-25.5 -8q-18 0 -28 7t-19.5 19.5t-19.5 18.5q-43 28 -166 28q-87 0 -157 -53t-106.5 -133.5t-36.5 -168.5q0 -164 90.5 -279
t253.5 -123q101 0 155 29q10 4 30.5 27t42.5 23q27 -4 36 -16.5t9 -38.5q2 -38 -23.5 -68t-66.5 -46t-85 -24.5t-86 -8.5q0 -212 5 -283h-105q0 128 6 289q-187 18 -308.5 154.5t-121.5 330.5z" />
    <glyph glyph-name="sterling" unicode="&#xa3;" horiz-adv-x="909" 
d="M50 498l5 106q14 0 57.5 -3t76.5 -3q0 3 -30 93.5t-30 154.5q0 162 101.5 251t260.5 89q101 0 181 -44q18 -12 37 -27.5t37 -37t28.5 -42.5t7.5 -44t-22 -41q-10 -7 -20 -9t-20.5 1t-18 6.5t-19 14t-18 16.5t-19.5 20t-19 20q-60 49 -140 49q-82 0 -144.5 -60t-62.5 -141
q-2 -49 10.5 -100t32.5 -101.5t24 -67.5q49 0 219 12v-107q-25 0 -92 2.5t-110 2.5q5 -43 5 -117q0 -194 -110 -263v-11q425 0 598 51v-162h-778v94q145 65 145 214q0 75 -17 194q-32 0 -156 -10z" />
    <glyph glyph-name="yen" unicode="&#xa5;" horiz-adv-x="909" 
d="M43 1013.5v17t5.5 15t13 10.5t20 7t29.5 1q38 0 99.5 -85.5t114.5 -191.5t91.5 -198t38.5 -108h10q7 24 41 109t83.5 195.5t108.5 194.5t100 84q115 5 20 -144q-10 -15 -28 -41l-3 -4q-43 -62 -101.5 -149.5t-59.5 -88.5q123 0 205 5v-77h-249q-5 -13 -24.5 -52.5
t-25.5 -57.5h299v-73q-61 0 -171 2.5t-150 2.5q-8 -40 -9.5 -94.5t1 -97t7.5 -104.5t6 -92h-155q0 3 5.5 60t6.5 70.5t4 61t2.5 71.5t-2 60t-5.5 65q-32 0 -138.5 -2.5t-176.5 -2.5v73h293q-15 43 -44 110h-261v77q89 -5 222 -5q-10 15 -40 64.5t-59.5 95t-61.5 89.5
q-4 7 -13 23q-8 13 -12.5 20.5t-12 21.5t-11 22t-8.5 20.5t-5 20z" />
    <glyph glyph-name="dieresis" unicode="&#xa8;" horiz-adv-x="836" 
d="M125 1238q0 46 31.5 78.5t84.5 32.5q44 0 69 -27.5t25 -70.5q0 -48 -31.5 -81.5t-83.5 -33.5q-44 0 -69.5 29t-25.5 73zM503 1238q0 46 31.5 78.5t84.5 32.5q44 0 69 -27.5t25 -70.5q0 -48 -31.5 -81.5t-83.5 -33.5q-44 0 -69.5 29t-25.5 73z" />
    <glyph glyph-name="copyright" unicode="&#xa9;" horiz-adv-x="1310" 
d="M54 598q0 249 176 425q177 177 426 177t424 -177q176 -176 176 -425q0 -247 -176 -423q-175 -175 -424 -175q-250 0 -426 175q-176 176 -176 423zM146 600q0 -210 149 -361q151 -149 361 -149t359 149q149 151 149 361q0 211 -149 360q-148 150 -359 150t-361 -150
q-149 -149 -149 -360zM364 607q0 80 36.5 157.5t106.5 130.5t155 58q27 2 59.5 -2.5t65 -15t54 -31.5t21.5 -49q0 -36 -28 -36q-11 0 -18 4.5t-14 13t-14 12.5q-29 19 -107 19q-87 0 -145.5 -72t-58.5 -167q0 -111 61.5 -187t172.5 -83q65 0 104 21q8 2 21 17t26 15
q32 0 32 -36q0 -33 -32 -56.5t-71.5 -32t-79.5 -8.5q-153 0 -250 91.5t-97 236.5z" />
    <glyph glyph-name="guillemotleft" unicode="&#xab;" horiz-adv-x="929" 
d="M66 427v122q193 200 243.5 247t71.5 47q17 0 33.5 -17t16.5 -37q0 -21 -35 -69t-186 -233q155 -197 188 -243t33 -68q0 -19 -14 -35t-33 -16q-22 0 -71 47t-247 255zM476 427v122q241 242 270 267q31 27 48 27t34 -14.5t17 -36.5t-32 -66t-187 -239
q150 -195 184.5 -243.5t34.5 -70.5q0 -21 -15 -34.5t-33 -13.5q-23 0 -68.5 43.5t-252.5 258.5z" />
    <glyph glyph-name="uni00AD" unicode="&#xad;" 
d="M37 509q0 57 63 57h315q69 0 69 -57q0 -62 -69 -62h-315q-63 0 -63 62z" />
    <glyph glyph-name="registered" unicode="&#xae;" horiz-adv-x="1310" 
d="M54 758q0 249 176 425q177 177 426 177t424 -177q176 -176 176 -425q0 -247 -176 -423q-175 -175 -424 -175q-250 0 -426 175q-176 176 -176 423zM146 760q0 -210 149 -361q151 -149 361 -149t359 149q149 151 149 361q0 211 -149 360q-148 150 -359 150t-361 -150
q-149 -149 -149 -360zM461 458q19 348 0 657h71q50 0 90.5 2t45.5 2q221 0 221 -154q0 -127 -123 -176v-6q26 -8 48 -27t41 -53.5t28.5 -55.5t26.5 -65q5 -12 7 -18q21 -50 21 -85t-37 -35q-16 0 -30 18t-18.5 30t-12.5 36q0 1 -9 26t-12.5 33.5t-13.5 32t-17 35.5t-17.5 29
t-21 27t-21.5 16q-70 26 -180 11q0 -85 5 -280h-92zM545 1046q3 -59 3 -240q61 0 102 5t78.5 17.5t56 38t18.5 64.5q0 122 -163 122q-34 0 -95 -7z" />
    <glyph glyph-name="acute" unicode="&#xb4;" horiz-adv-x="458" 
d="M71 1086q1 11 76 143q5 9 22 41t28.5 51t30 43t39 36t43.5 12q34 0 53 -20.5t19 -56.5q0 -8 -1.5 -16t-6 -16t-8 -13.5t-12 -15.5t-13.5 -15l-17.5 -17.5l-18.5 -18.5q-122 -122 -122 -137h-112z" />
    <glyph glyph-name="cedilla" unicode="&#xb8;" horiz-adv-x="470" 
d="M116 -172l46 224l74 -14l-16 -138q196 -46 196 -192q0 -222 -240 -222l-14 92q46 0 76 31.5t30 76.5q0 113 -152 142z" />
    <glyph glyph-name="guillemotright" unicode="&#xbb;" horiz-adv-x="929" 
d="M71 173q0 22 34.5 70.5t184.5 243.5q-155 195 -187 239t-32 66t17 36.5t34 14.5q19 0 55.5 -33.5t180.5 -177.5q51 -52 82 -83v-122q-207 -215 -252.5 -258.5t-68.5 -43.5q-18 0 -33 13.5t-15 34.5zM485 176q0 22 33 68t188 243q-151 185 -186 233t-35 69q0 20 16.5 37
t33.5 17q21 0 71.5 -47t243.5 -247v-122q-198 -208 -247 -255t-71 -47q-19 0 -33 16t-14 35z" />
    <glyph glyph-name="circumflex" unicode="&#x2c6;" horiz-adv-x="782" 
d="M123 1126.5q-2 14.5 9 46.5t51 90.5t110 146.5l196 1q70 -90 109 -147.5t50.5 -90.5t8.5 -48.5t-19 -30.5q-10 -12 -27.5 -10t-43 19t-69.5 62.5t-106 119.5q-55 -61 -95.5 -101.5t-66.5 -61.5t-44.5 -29t-28.5 -5.5t-19 11.5q-13 13 -15 27.5z" />
    <glyph glyph-name="ring" unicode="&#x2da;" horiz-adv-x="610" 
d="M93 1260q0 103 69 163t159 60q82 0 139 -51t57 -145q0 -103 -69 -165q-68 -61 -159 -61q-82 0 -139 51q-57 52 -57 148zM187 1265q0 -55 31 -86.5t79 -31.5q50 0 88 35q38 36 38 97q0 55 -31 86.5t-79 31.5q-51 0 -88 -36q-38 -35 -38 -96z" />
    <glyph glyph-name="tilde" unicode="&#x2dc;" horiz-adv-x="884" 
d="M71 1131q118 221 262 221q44 0 133.5 -25t142.5 -25q29 0 61.5 16.5t55 36t43 36t29.5 16.5q12 0 19.5 -10.5t7.5 -26.5q0 -76 -78.5 -149.5t-165.5 -73.5q-29 0 -130 25.5t-136 25.5q-95 0 -177 -118z" />
    <glyph glyph-name="uni0400" unicode="&#x400;" horiz-adv-x="1066" 
d="M188 0q14 322 14 684q0 343 -14 618h756l-8 -149q-274 12 -583 12q6 -154 6 -419q265 0 474 12v-149q-222 9 -474 9q0 -257 9 -482q332 0 632 15l-6 -151h-806zM285 1690h216q0 -10 90 -135q90 -123 90 -139h-120q-11 18 -143 139q-133 123 -133 135z" />
    <glyph glyph-name="afii10023" unicode="&#x401;" horiz-adv-x="1066" 
d="M188 0q14 322 14 684q0 343 -14 618h756l-8 -149q-274 12 -583 12q6 -154 6 -419q265 0 474 12v-149q-222 9 -474 9q0 -257 9 -482q332 0 632 15l-6 -151h-806zM295 1546q0 46 31.5 78.5t84.5 32.5q44 0 69 -27.5t25 -70.5q0 -48 -31.5 -81.5t-83.5 -33.5q-44 0 -69.5 29
t-25.5 73zM673 1546q0 46 31.5 78.5t84.5 32.5q44 0 69 -27.5t25 -70.5q0 -48 -31.5 -81.5t-83.5 -33.5q-44 0 -69.5 29t-25.5 73z" />
    <glyph glyph-name="afii10051" unicode="&#x402;" horiz-adv-x="1296" 
d="M22 1159l5 143h983l-5 -141q-213 10 -432 10q-5 -171 -6 -420q48 5 105 5q558 0 558 -353q0 -197 -137 -308t-400 -111l-13 130q216 0 299 69q82 70 82 203q0 240 -416 240q-29 0 -78 -6q0 -244 8 -620h-183q12 340 12 684q0 290 -6 487q-148 0 -376 -12z" />
    <glyph glyph-name="afii10052" unicode="&#x403;" horiz-adv-x="989" 
d="M188 0q12 242 12 618q0 436 -12 684h768l-6 -157q-337 10 -599 10q11 -204 11 -537q0 -416 12 -618h-186zM468 1416q0 16 90 139q90 125 90 135h216q0 -12 -133 -135q-132 -121 -143 -139h-120z" />
    <glyph glyph-name="afii10053" unicode="&#x404;" horiz-adv-x="1137" 
d="M99 622q0 310 167 504t494 194q156 0 293 -27l-25 -153q-151 40 -301 40q-405 0 -451 -423q312 0 575 3v-152q-311 9 -568 9q10 -259 108 -382t344 -123q127 0 347 51l-14 -153q-221 -37 -362 -37q-337 0 -472 168q-135 169 -135 481z" />
    <glyph glyph-name="afii10054" unicode="&#x405;" horiz-adv-x="1047" 
d="M99 10l35 157q167 -58 319 -58q340 0 340 192q0 97 -88 166q-57 45 -232 123q-180 81 -255 149q-101 95 -101 236q0 148 103 241q116 104 325 104q239 0 326 -31l-24 -159q-152 48 -323 48q-257 0 -257 -172q0 -83 74 -139q51 -36 212 -106q189 -81 270 -154
q125 -110 125 -270q0 -370 -515 -370q-190 0 -334 43z" />
    <glyph glyph-name="afii10055" unicode="&#x406;" horiz-adv-x="566" 
d="M188 0q15 324 15 684q0 354 -15 618h190q-14 -283 -14 -618q0 -350 14 -684h-190z" />
    <glyph glyph-name="afii10056" unicode="&#x407;" horiz-adv-x="566" 
d="M-8 1546q0 46 31.5 78.5t84.5 32.5q44 0 69 -27.5t25 -70.5q0 -48 -31.5 -81.5t-83.5 -33.5q-44 0 -69.5 29t-25.5 73zM188 0q15 324 15 684q0 354 -15 618h190q-14 -283 -14 -618q0 -350 14 -684h-190zM370 1546q0 46 31.5 78.5t84.5 32.5q44 0 69 -27.5t25 -70.5
q0 -48 -31.5 -81.5t-83.5 -33.5q-44 0 -69.5 29t-25.5 73z" />
    <glyph glyph-name="afii10057" unicode="&#x408;" horiz-adv-x="818" 
d="M22 -6l15 146q71 -33 148 -33q178 0 253 101q39 51 55.5 127t16.5 200q0 453 -15 767h190q-14 -316 -14 -744q0 -160 -27 -265t-85 -178q-112 -142 -363 -142q-98 0 -174 21z" />
    <glyph glyph-name="afii10058" unicode="&#x409;" horiz-adv-x="1739" 
d="M9 163q69 15 184.5 223.5t213 473.5t124.5 442h496q-17 -240 -17 -551q48 5 105 5q558 0 558 -353q0 -190 -158 -300q-157 -109 -429 -109q-78 0 -243 6q10 267 10 657q0 313 7 519h-215q-14 -81 -54.5 -218.5t-105.5 -304t-138.5 -313.5t-161.5 -249t-166 -108z
M1010 620q0 -278 10 -487q46 -9 73 -9q235 0 323 65q88 66 88 197q0 240 -416 240q-28 0 - -247 -255t-71 -47q-19 0 -33 16t-14 35z" />
    <glyph glyph-name="circumflex" unicode="&#x2c6;" horiz-adv-x="782" 
d="M123 1126.5q-2 14.5 9 46.5t51 90.5t110 146.5l196 1q70 -90 109 -147.5t50.5 -90.5t8.5 -48.5t-19 -30.5q-10 -12 -27.5 -10t-43 19t-69.5 62.5t-106 119.5q-55 -61 -95.5 -101.5t-66.5 -61.5t-44.5 -29t-28.5 -5.5t-19 11.5q-13 13 -15 27.5z" />
    <glyph glyph-name="ring" unicode="&#x2da;" horiz-adv-x="610" 
d="M93 1260q0 103 69 163t159 60q82 0 139 -51t57 -145q0 -103 -69 -165q-68 -61 -159 -61q-82 0 -139 51q-57 52 -57 148zM187 1265q0 -55 31 -86.5t79 -31.5q50 0 88 35q38 36 38 97q0 55 -31 86.5t-79 31.5q-51 0 -88 -36q-38 -35 -38 -96z" />
    <glyph glyph-name="tilde" unicode="&#x2dc;" horiz-adv-x="884" 
d="M71 1131q118 221 262 221q44 0 133.5 -25t142.5 -25q29 0 61.5 16.5t55 36t43 36t29.5 16.5q12 0 19.5 -10.5t7.5 -26.5q0 -76 -78.5 -149.5t-165.5 -73.5q-29 0 -130 25.5t-136 25.5q-95 0 -177 -118z" />
    <glyph glyph-name="uni0400" unicode="&#x400;" horiz-adv-x="1066" 
d="M188 0q14 322 14 684q0 343 -14 618h756l-8 -149q-274 12 -583 12q6 -154 6 -419q265 0 474 12v-149q-222 9 -474 9q0 -257 9 -482q332 0 632 15l-6 -151h-806zM285 1690h216q0 -10 90 -135q90 -123 90 -139h-120q-11 18 -143 139q-133 123 -133 135z" />
    <glyph glyph-name="afii10023" unicode="&#x401;" horiz-adv-x="1066" 
d="M188 0q14 322 14 684q0 343 -14 618h756l-8 -149q-274 12 -583 12q6 -154 6 -419q265 0 474 12v-149q-222 9 -474 9q0 -257 9 -482q332 0 632 15l-6 -151h-806zM295 1546q0 46 31.5 78.5t84.5 32.5q44 0 69 -27.5t25 -70.5q0 -48 -31.5 -81.5t-83.5 -33.5q-44 0 -69.5 29
t-25.5 73zM673 1546q0 46 31.5 78.5t84.5 32.5q44 0 69 -27.5t25 -70.5q0 -48 -31.5 -81.5t-83.5 -33.5q-44 0 -69.5 29t-25.5 73z" />
    <glyph glyph-name="afii10051" unicode="&#x402;" horiz-adv-x="1296" 
d="M22 1159l5 143h983l-5 -141q-213 10 -432 10q-5 -171 -6 -420q48 5 105 5q558 0 558 -353q0 -197 -137 -308t-400 -111l-13 130q216 0 299 69q82 70 82 203q0 240 -416 240q-29 0 -78 -6q0 -244 8 -620h-183q12 340 12 684q0 290 -6 487q-148 0 -376 -12z" />
    <glyph glyph-name="afii10052" unicode="&#x403;" horiz-adv-x="989" 
d="M188 0q12 242 12 618q0 436 -12 684h768l-6 -157q-337 10 -599 10q11 -204 11 -537q0 -416 12 -618h-186zM468 1416q0 16 90 139q90 125 90 135h216q0 -12 -133 -135q-132 -121 -143 -139h-120z" />
    <glyph glyph-name="afii10053" unicode="&#x404;" horiz-adv-x="1137" 
d="M99 622q0 310 167 504t494 194q156 0 293 -27l-25 -153q-151 40 -301 40q-405 0 -451 -423q312 0 575 3v-152q-311 9 -568 9q10 -259 108 -382t344 -123q127 0 347 51l-14 -153q-221 -37 -362 -37q-337 0 -472 168q-135 169 -135 481z" />
    <glyph glyph-name="afii10054" unicode="&#x405;" horiz-adv-x="1047" 
d="M99 10l35 157q167 -58 319 -58q340 0 340 192q0 97 -88 166q-57 45 -232 123q-180 81 -255 149q-101 95 -101 236q0 148 103 241q116 104 325 104q239 0 326 -31l-24 -159q-152 48 -323 48q-257 0 -257 -172q0 -83 74 -139q51 -36 212 -106q189 -81 270 -154
q125 -110 125 -270q0 -370 -515 -370q-190 0 -334 43z" />
    <glyph glyph-name="afii10055" unicode="&#x406;" horiz-adv-x="566" 
d="M188 0q15 324 15 684q0 354 -15 618h190q-14 -283 -14 -618q0 -350 14 -684h-190z" />
    <glyph glyph-name="afii10056" unicode="&#x407;" horiz-adv-x="566" 
d="M-8 1546q0 46 31.5 78.5t84.5 32.5q44 0 69 -27.5t25 -70.5q0 -48 -31.5 -81.5t-83.5 -33.5q-44 0 -69.5 29t-25.5 73zM188 0q15 324 15 684q0 354 -15 618h190q-14 -283 -14 -618q0 -350 14 -684h-190zM370 1546q0 46 31.5 78.5t84.5 32.5q44 0 69 -27.5t25 -70.5
q0 -48 -31.5 -81.5t-83.5 -33.5q-44 0 -69.5 29t-25.5 73z" />
    <glyph glyph-name="afii10057" unicode="&#x408;" horiz-adv-x="818" 
d="M22 -6l15 146q71 -33 148 -33q178 0 253 101q39 51 55.5 127t16.5 200q0 453 -15 767h190q-14 -316 -14 -744q0 -160 -27 -265t-85 -178q-112 -142 -363 -142q-98 0 -174 21z" />
    <glyph glyph-name="afii10058" unicode="&#x409;" horiz-adv-x="1739" 
d="M9 163q69 15 184.5 223.5t213 473.5t124.5 442h496q-17 -240 -17 -551q48 5 105 5q558 0 558 -353q0 -190 -158 -300q-157 -109 -429 -109q-78 0 -243 6q10 267 10 657q0 313 7 519h-215q-14 -81 -54.5 -218.5t-105.5 -304t-138.5 -313.5t-161.5 -249t-166 -108z
M1010 620q0 -278 10 -487q46 -9 73 -9q235 0 323 65q88 66 88 197q0 240 -416 240q-28 0 -78 -6z" />
    <glyph glyph-name="afii10059" unicode="&#x40a;" horiz-adv-x="1764" 
d="M188 0q14 378 14 684q0 324 -14 618h190q-12 -286 -12 -556h508q0 230 -13 556h190q-7 -99 -16 -551q48 5 105 5q558 0 558 -353q0 -190 -158 -300q-157 -109 -429 -109q-77 0 -250 6q13 334 13 620h-506q0 -241 10 -620h-190zM1035 620q0 -278 10 -487q47 -9 73 -9
q235 0 323 65q88 66 88 197q0 240 -416 240q-29 0 -78 -6z" />
    <glyph glyph-name="afii10060" unicode="&#x40b;" horiz-adv-x="1338" 
d="M22 1159l5 143h983l-5 -141q-213 10 -433 10q-5 -190 -5 -430q123 15 275 15q388 0 388 -263q0 -272 9 -493h-191q13 160 13 426q0 200 -246 200q-123 0 -248 -16q0 -234 8 -610h-183q12 340 12 684q0 290 -6 487q-148 0 -376 -12z" />
    <glyph glyph-name="afii10061" unicode="&#x40c;" horiz-adv-x="1230" 
d="M188 0q14 322 14 684q0 343 -14 618h188q-10 -286 -10 -574q49 -3 92 -3q170 0 282 112t163 387q9 49 29 78h172q-18 -50 -37 -109q-65 -230 -140 -341q-76 -111 -190 -166v-11q128 -45 195 -139q69 -95 178 -416q1 -2 16 -44.5t27 -75.5h-207q-9 19 -29 86
q-81 320 -172 415q-90 96 -287 96q-60 0 -92 -3q0 -335 10 -594h-188zM542 1416q0 16 90 139q90 125 90 135h216q0 -12 -133 -135q-132 -121 -143 -139h-120z" />
    <glyph glyph-name="uni040D" unicode="&#x40d;" horiz-adv-x="1386" 
d="M188 0q17 274 17 618q0 349 -17 684h188q-14 -280 -14 -606q0 -172 -9 -382h11q39 97 383 509q310 370 310 479h141q-15 -326 -15 -684q0 -352 15 -618h-190q14 193 14 556q0 170 6 432h-10q-34 -99 -374 -511q-316 -382 -316 -477h-140zM403 1690h216q0 -10 90 -135
q90 -123 90 -139h-120q-11 18 -143 139q-133 123 -133 135z" />
    <glyph glyph-name="afii10062" unicode="&#x40e;" horiz-adv-x="1050" 
d="M11 1302h207q0 -31 187 -375q188 -344 188 -384h10q276 611 276 759h182q0 -55 -144 -400q-141 -341 -265 -559q-121 -213 -235 -293q-113 -79 -314 -79l-8 141q168 0 253 53q86 54 153 201q0 73 -245 495t-245 441zM256 1671l144 19q0 -200 172 -200q101 0 137 51
q36 53 36 149l134 -21q0 -111 -70 -199q-69 -88 -237 -88q-174 0 -245 89q-71 91 -71 200z" />
    <glyph glyph-name="afii10145" unicode="&#x40f;" horiz-adv-x="1299" 
d="M188 0q12 318 12 609q0 303 -12 693h184q-11 -294 -11 -657v-509h577v492q0 395 -10 674h183q-12 -398 -12 -693q0 -281 12 -609h-376q-30 -274 -30 -415h-114q0 127 -30 415h-373z" />
    <glyph glyph-name="afii10017" unicode="&#x410;" horiz-adv-x="1262" 
d="M11 0q0 38 258 639q258 603 258 663h232q0 -59 246 -653t246 -649h-211q0 67 -126 421h-577q-124 -348 -124 -421h-202zM379 552h489q-235 585 -235 624h-11q0 -32 -243 -624z" />
    <glyph glyph-name="afii10018" unicode="&#x411;" horiz-adv-x="1167" 
d="M188 0q14 322 14 684q0 343 -14 618h837l-6 -149q-360 12 -668 12q4 -140 4 -409q81 4 168 4q249 0 381 -56q197 -86 197 -307q0 -194 -163 -299q-164 -104 -444 -104q-78 0 -306 6zM355 620q0 -257 11 -477q38 -9 134 -9q243 0 337 60q95 60 95 186q0 246 -436 246
q-80 0 -141 -6z" />
    <glyph glyph-name="afii10019" unicode="&#x412;" horiz-adv-x="1200" 
d="M188 0q14 322 14 684q0 343 -14 618h120q34 0 141 3t154 3q416 0 416 -287q0 -224 -197 -298v-10q279 -49 279 -316q0 -193 -165 -300q-160 -103 -442 -103q-78 0 -306 6zM345 1163q8 -77 8 -407q66 -2 108 -2q198 0 288 45q102 49 102 172q0 207 -279 207
q-140 0 -227 -15zM355 620q0 -257 11 -477q38 -9 134 -9q242 0 342 63q90 57 90 183q0 246 -436 246q-80 0 -141 -6z" />
    <glyph glyph-name="afii10020" unicode="&#x413;" horiz-adv-x="989" 
d="M188 0q12 242 12 618q0 436 -12 684h768l-6 -157q-337 10 -599 10q11 -204 11 -537q0 -416 12 -618h-186z" />
    <glyph glyph-name="afii10021" unicode="&#x414;" horiz-adv-x="1329" 
d="M10 136h96q171 521 469 1166h510q-12 -320 -12 -610q0 -294 18 -556h194q0 -63 -28 -253t-28 -298h-119q0 160 -4 420q-151 10 -472 10q-276 0 -450 -10q-54 -293 -54 -420h-114q0 103 -3 297t-3 254zM261 136h662q-12 192 -12 521q0 323 -4 519h-245
q-303 -712 -401 -1040z" />
    <glyph glyph-name="afii10022" unicode="&#x415;" horiz-adv-x="1066" 
d="M188 0q14 322 14 684q0 343 -14 618h756l-8 -149q-274 12 -583 12q6 -154 6 -419q265 0 474 12v-149q-222 9 -474 9q0 -257 9 -482q332 0 632 15l-6 -151h-806z" />
    <glyph glyph-name="afii10024" unicode="&#x416;" horiz-adv-x="1750" 
d="M77 0q4 12 10.5 29t16 44.5t16.5 46.5q108 317 178 415q69 95 195 140v11q-117 55 -190 160q-73 104 -140 347q-12 44 -37 109h182q10 -13 29 -78q53 -281 160 -390q109 -109 280 -109q9 0 17 3q0 288 -10 574h182q-10 -286 -10 -574q12 -3 22 -3q170 0 282 112t163 387
q9 49 29 78h172q-18 -50 -37 -109q-65 -230 -140 -341q-76 -111 -190 -166v-11q128 -45 195 -139q69 -95 178 -416q1 -2 16 -44.5t27 -75.5h-207q-9 19 -29 86q-81 320 -172 415q-90 96 -287 96q-14 0 -22 -3q0 -335 10 -594h-182q10 259 10 594q-18 3 -32 3
q-196 0 -288 -96q-90 -96 -171 -415q-11 -45 -29 -86h-197z" />
    <glyph glyph-name="afii10025" unicode="&#x417;" horiz-adv-x="1091" 
d="M66 31l25 159q192 -81 393 -81q338 0 338 253q0 130 -118 188q-117 60 -300 60q-78 0 -158 -5l23 149q65 -5 162 -5q332 0 332 230q0 199 -302 199q-194 0 -338 -60l24 155q135 47 396 47q193 0 290 -84q97 -82 97 -211q0 -215 -217 -302v-10q279 -54 279 -327
q0 -188 -141 -303q-140 -116 -367 -116q-245 0 -418 64z" />
    <glyph glyph-name="afii10026" unicode="&#x418;" horiz-adv-x="1386" 
d="M188 0q17 274 17 618q0 349 -17 684h188q-14 -280 -14 -606q0 -172 -9 -382h11q39 97 383 509q310 370 310 479h141q-15 -326 -15 -684q0 -352 15 -618h-190q14 193 14 556q0 170 6 432h-10q-34 -99 -374 -511q-316 -382 -316 -477h-140z" />
    <glyph glyph-name="afii10027" unicode="&#x419;" horiz-adv-x="1386" 
d="M188 0q17 274 17 618q0 349 -17 684h188q-14 -280 -14 -606q0 -172 -9 -382h11q39 97 383 509q310 370 310 479h141q-15 -326 -15 -684q0 -352 15 -618h-190q14 193 14 556q0 170 6 432h-10q-34 -99 -374 -511q-316 -382 -316 -477h-140zM389 1671l144 19
q0 -200 172 -200q101 0 137 51q36 53 36 149l134 -21q0 -111 -70 -199q-69 -88 -237 -88q-174 0 -245 89q-71 91 -71 200z" />
    <glyph glyph-name="afii10028" unicode="&#x41a;" horiz-adv-x="1230" 
d="M188 0q14 322 14 684q0 343 -14 618h188q-10 -286 -10 -574q49 -3 92 -3q170 0 282 112t163 387q9 49 29 78h172q-18 -50 -37 -109q-65 -230 -140 -341q-76 -111 -190 -166v-11q128 -45 195 -139q69 -95 178 -416q1 -2 16 -44.5t27 -75.5h-207q-9 19 -29 86
q-81 320 -172 415q-90 96 -287 96q-60 0 -92 -3q0 -335 10 -594h-188z" />
    <glyph glyph-name="afii10029" unicode="&#x41b;" horiz-adv-x="1257" 
d="M9 163q69 15 184.5 223.5t213 473.5t124.5 442h538q-12 -319 -12 -610q0 -366 12 -692h-184q11 294 11 657q0 323 -4 519h-247q-14 -81 -54.5 -218.5t-105.5 -304t-138.5 -313.5t-161.5 -249t-166 -108z" />
    <glyph glyph-name="afii10030" unicode="&#x41c;" horiz-adv-x="1748" 
d="M144 0q0 6 68 550q68 546 68 752h263q0 -112 160 -550t160 -533h10q0 93 180 534q180 443 180 549h257q0 -217 46 -748t46 -554h-188q0 230 -31 645q-31 421 -33 506h-10q-103 -334 -254 -706q-153 -379 -153 -445h-135q0 69 -143 453q-148 398 -181 514q-46 161 -52 184
h-10q-3 -145 -40 -553q-36 -416 -36 -598h-172z" />
    <glyph glyph-name="afii10031" unicode="&#x41d;" horiz-adv-x="1335" 
d="M188 0q14 378 14 684q0 324 -14 618h190q-12 -286 -12 -556h603q0 217 -12 556h190q-15 -278 -15 -618q0 -374 15 -684h-190q10 330 10 620h-599q0 -241 10 -620h-190z" />
    <glyph glyph-name="afii10032" unicode="&#x41e;" horiz-adv-x="1421" 
d="M99 618q0 328 189 518q189 192 437 192q239 0 417 -178q180 -177 180 -479q0 -323 -189 -517q-189 -193 -437 -193q-238 0 -418 177q-179 179 -179 480zM276 642q0 -259 136 -401q136 -141 313 -141q164 0 291 151q128 152 128 397q0 259 -136 399q-135 142 -312 142
q-164 0 -292 -149t-128 -398z" />
    <glyph glyph-name="afii10033" unicode="&#x41f;" horiz-adv-x="1279" 
d="M188 0q13 381 13 692q0 292 -13 610h903q-12 -320 -12 -610q0 -304 12 -692h-184q10 267 10 657q0 292 17 519h-589q17 -216 17 -502q0 -395 10 -674h-184z" />
    <glyph glyph-name="afii10034" unicode="&#x420;" horiz-adv-x="1132" 
d="M188 0q15 284 15 684q0 344 -15 618h143q23 0 131 3q109 3 185 3q193 0 305 -88q114 -87 114 -241q0 -228 -173 -341t-465 -113q-28 0 -64 2q0 -227 16 -527h-192zM355 1163q7 -153 7 -508q46 -2 86 -2q451 0 451 268q0 257 -351 257q-86 0 -193 -15z" />
    <glyph glyph-name="afii10035" unicode="&#x421;" horiz-adv-x="1125" 
d="M99 622q0 286 193 491q194 207 519 207q89 0 190 -27l-28 -159q-115 36 -205 36q-242 0 -367 -150q-125 -151 -125 -367q0 -221 144 -379t398 -158q99 0 252 43l-13 -149q-121 -37 -268 -37q-344 0 -517 188q-173 190 -173 461z" />
    <glyph glyph-name="afii10036" unicode="&#x422;" horiz-advode="&#x42f;" horiz-adv-x="1218" 
d="M44 0q19 48 38 100q99 288 161 378q63 89 181 123v11q-295 61 -295 343q0 353 488 353q73 0 163 -3t109 -3h141q-15 -266 -15 -618q0 -374 15 -684h-186q12 232 12 556q-88 2 -151 2q-183 0 -273 -94q-91 -96 -167 -398q-13 -52 -24 -66h-197zM301 969q0 -281 422 -281
q69 0 133 2q0 226 -12 473q-147 13 -241 13q-163 0 -233 -49q-69 -48 -69 -158z" />
    <glyph glyph-name="afii10065" unicode="&#x430;" horiz-adv-x="1005" 
d="M122 295q0 147 122 239t328 92q65 0 155 -11q-1 117 -51.5 179t-162.5 62q-98 0 -161 -32q-13 -7 -48.5 -38t-63.5 -31q-40 0 -43 48q-2 54 32.5 93t90.5 56.5t105.5 25t98.5 7.5q353 0 353 -338v-240q0 -194 16 -407h-172v118q-125 -118 -277 -118q-144 0 -233 82.5
t-89 212.5zM283 311q0 -80 53 -126t145 -46q147 0 246 108v245q-65 11 -139 11q-305 0 -305 -192z" />
    <glyph glyph-name="afii10066" unicode="&#x431;" horiz-adv-x="1144" 
d="M108 665q0 375 165 546q134 139 408 167q124 13 341 43l-9 -160q-66 -3 -352 -34q-205 -27 -284 -99q-109 -97 -109 -339h10q125 143 336 143q191 0 322 -110q130 -109 130 -339q0 -252 -150 -387t-354 -135q-270 0 -374 207q-80 158 -80 497zM271 661q1 -303 77 -439
q75 -135 237 -135q141 0 224 107q84 107 84 254q0 153 -78 255q-76 103 -224 103q-208 0 -320 -145z" />
    <glyph glyph-name="afii10067" unicode="&#x432;" horiz-adv-x="1022" 
d="M111 950h104q156 11 303 11q356 0 356 -220q0 -162 -145 -222v-10q188 -36 188 -228q0 -140 -113.5 -213.5t-325.5 -73.5q-112 0 -346 6q14 142 14 459q0 296 -35 491zM285 829q8 -155 8 -279q138 -5 211 -5q102 0 161 44q55 40 55 109q0 140 -204 140q-100 0 -231 -9z
M293 425q0 -138 2 -296q91 -12 218 -12q242 0 242 154q0 103 -94 139q-57 22 -181 22q-100 0 -187 -7z" />
    <glyph glyph-name="afii10068" unicode="&#x433;" horiz-adv-x="780" 
d="M111 0q15 200 15 457q0 289 -15 493h649l-6 -154q-181 17 -484 17q5 -223 5 -356q0 -231 14 -457h-178z" />
    <glyph glyph-name="afii10069" unicode="&#x434;" horiz-adv-x="1153" 
d="M36 128h99q100 361 347 822h289l135 19q-13 -201 -13 -512q0 -122 18 -329h187q0 -51 -24 -245q-23 -198 -23 -298h-119q0 127 -3 420q-137 6 -384 6q-158 0 -340 -6q-47 -296 -47 -420h-119q0 35 -2 255q-1 109 -1 288zM280 128h478q-11 204 -11 329q0 189 -8 368h-174
q-61 -113 -147 -300q-86 -188 -138 -397z" />
    <glyph glyph-name="afii10070" unicode="&#x435;" horiz-adv-x="1051" 
d="M98 460q0 103 30 198t86.5 170.5t145.5 120.5t198 45q146 0 244.5 -77t133.5 -197.5t11 -259.5h-688q17 -186 114.5 -273t279.5 -87h20h24t24 0.5t26.5 1.5t25 3t25.5 5.5t21 8t19 10.5q9 6 19 19t20.5 18.5t30.5 5.5q39 0 39 -62q0 -41 -32.5 -70.5t-84.5 -43t-98 -19
t-90 -5.5q-130 0 -235 38.5t-171.5 105.5t-102 155t-35.5 189zM265 571h521q0 142 -61.5 218.5t-177.5 76.5q-240 0 -282 -295z" />
    <glyph glyph-name="afii10072" unicode="&#x436;" horiz-adv-x="1466" 
d="M78 0q14 29 44 110q58 171 122 261q64 89 159 117v10q-142 54 -256 367q-16 42 -34 85h170q9 -12 22 -46q90 -362 312 -362q20 0 40 2q0 240 -13 406h178q-13 -166 -13 -406q26 -2 45 -2q222 0 312 362q7 25 22 46h165q-5 -11 -34 -85q-114 -313 -256 -367v-10
q95 -29 158 -117q65 -89 123 -261q17 -50 44 -110h-181q-5 10 -24 52q-65 211 -137 290q-74 81 -192 81q-17 0 -45 -2q0 -231 15 -421h-182q15 190 15 421q-38 2 -53 2q-118 0 -192 -81q-72 -79 -137 -290q-7 -21 -24 -52h-173z" />
    <glyph glyph-name="afii10073" unicode="&#x437;" horiz-adv-x="898" 
d="M68 14l17 135q120 -50 305 -50q253 0 253 164q0 167 -301 167q-92 0 -171 -6l17 132q82 -6 159 -6q269 0 269 165q0 133 -236 133q-162 0 -283 -41l17 133q125 43 287 43q365 0 365 -221q0 -166 -154 -232v-10q70 -14 121 -65q67 -67 67 -171q0 -153 -124 -232
q-122 -79 -286 -79q-178 0 -322 41z" />
    <glyph glyph-name="afii10074" unicode="&#x438;" horiz-adv-x="1083" 
d="M111 942l198 27q-13 -178 -13 -471q0 -102 -6 -256h10q22 63 272 362q234 280 234 338l142 27q-12 -209 -12 -512q0 -231 14 -457h-179q15 171 15 457q0 89 10 243h-10q-21 -69 -273 -363q-239 -281 -239 -337h-142q14 207 14 457q0 286 -35 485z" />
    <glyph glyph-name="afii10075" unicode="&#x439;" horiz-adv-x="1083" 
d="M111 942l198 27q-13 -178 -13 -471q0 -102 -6 -256h10q22 63 272 362q234 280 234 338l142 27q-12 -209 -12 -512q0 -231 14 -457h-179q15 171 15 457q0 89 10 243h-10q-21 -69 -273 -363q-239 -281 -239 -337h-142q14 207 14 457q0 286 -35 485zM240 1378l144 19
q0 -200 172 -200q101 0 137 51q36 52 36 149l134 -21q0 -111 -70 -199q-69 -88 -237 -88q-174 0 -245 89q-71 91 -71 200z" />
    <glyph glyph-name="afii10076" unicode="&#x43a;" horiz-adv-x="999" 
d="M111 942l198 27q-13 -185 -13 -425q80 -2 106 -2q222 0 312 362q7 25 22 46h165q-5 -11 -34 -85q-114 -313 -256 -367v-10q95 -29 158 -117q65 -89 123 -261q17 -50 44 -110h-181q-5 10 -24 52q-65 211 -137 290q-74 81 -192 81q-20 0 -106 -2q0 -231 15 -421h-179
q15 200 15 457q0 288 -36 485z" />
    <glyph glyph-name="afii10077" unicode="&#x43b;" horiz-adv-x="1023" 
d="M9 143q37 3 92.5 70.5t114 175.5t115.5 258t95 303h328l135 19q-13 -201 -13 -512q0 -231 14 -457h-174q14 187 14 437q0 191 -8 388h-199q-59 -228 -141 -417.5t-178.5 -307t-184.5 -117.5z" />
    <glyph glyph-name="afii10078" unicode="&#x43c;" horiz-adv-x="1398" 
d="M133 0q0 34 37 425q37 392 37 525h244q0 -123 127 -425t127 -345h11q0 40 138 342q138 301 138 428h238q0 -116 17 -518q18 -388 18 -432h-169q0 96 -2 466q0 76 -0.5 156.5t-1 122.5t-0.5 59h-13q-22 -66 -115 -285q-217 -456 -217 -519h-137q0 86 -177 508
q-41 97 -108 296h-12q0 -66 -15 -385q-14 -331 -14 -419h-151z" />
    <glyph glyph-name="afii10079" unicode="&#x43d;" horiz-adv-x="1065" 
d="M111 942l194 27q-6 -97 -13 -401h477q-6 224 -33 374l194 27q-13 -201 -13 -512q0 -239 15 -457h-175q12 175 14 440h-479q0 -224 15 -440h-175q15 200 15 457q0 288 -36 485z" />
    <glyph glyph-name="afii10080" unicode="&#x43e;" horiz-adv-x="1144" 
d="M137 446q0 111 33 210.5t92.5 175.5t149.5 120.5t198 44.5q84 0 161 -33.5t137 -95t95.5 -157t35.5 -210.5q0 -148 -55.5 -269.5t-164.5 -196t-253 -74.5q-85 0 -161.5 32t-136.5 91.5t-95.5 153.5t-35.5 208zM299 485q-1 -174 74.5 -287.5t214.5 -113.5q74 0 131 36
t89 94t48 123t16 131q-2 72 -18 139.5t-47.5 128t-88 97t-130.5 36.5q-72 0 -129.5 -36.5t-91 -94.5t-51 -123t-17.5 -130z" />
    <glyph glyph-name="afii10081" unicode="&#x43f;" horiz-adv-x="1034" 
d="M111 942l197 8h452l139 19q-13 -201 -13 -512q0 -239 15 -457h-178q14 207 14 457q0 85 -2 365h-438q-2 -222 -2 -365q0 -239 15 -457h-178q15 200 15 457q0 288 -36 485z" />
    <glyph glyph-name="afii10082" unicode="&#x440;" horiz-adv-x="1138" 
d="M121 965h183q0 -5 -4.5 -44t-4.5 -45q100 112 313 112q96 0 175 -41t128.5 -109t76 -152t26.5 -173q0 -107 -32 -204t-90 -172.5t-148 -120t-198 -44.5q-70 0 -144 33t-129 80q6 -140 6 -424q0 -118 -67 -118q-22 0 -38 11.5t-23 31t-10 37.5t-3 38q0 85 2 303.5t2.5 366
t-4.5 332t-17 302.5zM273 184q41 -39 106 -64t127 -25q109 0 185.5 59t110 146.5t33.5 190.5q0 151 -77.5 256.5t-217.5 105.5q-165 0 -245 -88q-22 -173 -22 -581z" />
    <glyph glyph-name="afii10083" unicode="&#x441;" horiz-adv-x="925" 
d="M72 464q0 90 33 180t90 163t141.5 121.5t180.5 53.5q41 2 90 -4.5t98 -22t81 -47t32 -72.5q0 -55 -44 -55q-17 0 -27 7t-20 19.5t-20 18.5q-44 27 -161 27q-129 0 -218 -108t-89 -249q0 -107 39 -194.5t120 -144t192 -62.5q98 0 156 29q11 4 21.5 16.5t22 22.5t28.5 10
q25 0 35 -13.5t10 -41.5q0 -38 -27 -67t-70 -45.5t-88 -24.5t-88 -8q-227 0 -372.5 137t-145.5 354z" />
    <glyph glyph-name="afii10084" unicode="&#x442;" horiz-adv-x="902" 
d="M44 801l6 149h808l-6 -149q-159 16 -320 16q-4 -124 -4 -360q0 -239 15 -457h-182q14 207 14 457q0 205 -8 360q-162 0 -323 -16z" />
    <glyph glyph-name="afii10085" unicode="&#x443;" horiz-adv-x="952" 
d="M-10.5 909q-1.5 26 11.5 48.5t42 22.5q45 0 72 -60q15 -38 46 -114t103.5 -251t148.5 -362h11q41 144 127 365q74 190 128 392h183q0 -37 -205 -469q-88 -185 -132.5 -312.5t-54.5 -184.5q-18 -87 -36 -147.5t-43.5 -110.5t-55.5 -80.5t-74.5 -53t-98 -33t-127.5 -14.5
l-6 144q148 0 229 84q73 76 75 188q0 48 -14 99q-28 99 -161 413t-159 387q-8 23 -9.5 49z" />
    <glyph glyph-name="afii10086" unicode="&#x444;" horiz-adv-x="1363" 
d="M99 443q0 496 506 544q0 220 -17 379l185 31q-15 -157 -15 -410q229 -7 368 -112q138 -103 138 -351q0 -485 -506 -544q0 -212 15 -437h-180q12 198 12 437q-240 11 -373 114t-133 349zM267 483q0 -201 87 -284q89 -83 251 -102v773q-159 -9 -249 -93q-89 -83 -89 -294z
M758 97q339 37 339 386q0 200 -89 283q-89 85 -250 104v-773z" />
    <glyph glyph-name="afii10087" unicode="&#x445;" horiz-adv-x="1032" 
d="M90 950h211q6 -42 88.5 -172t127.5 -185h6q112 134 166 250q4 8 14 35t20.5 47.5t24.5 37.5q30 26 61 18t38 -28q13 -37 -13 -104q-20 -44 -56 -92.5t-93 -117.5t-96 -122v-13q67 -77 212.5 -266.5t159.5 -237.5h-210q-20 50 -114 189.5t-152 217.5h-6
q-63 -77 -114 -152.5t-68 -114.5q-10 -19 -21 -45.5t-20 -43.5t-22 -34q-28 -28 -58.5 -20.5t-39.5 36.5q-12 38 21 109q25 54 123 178t136 180v11q-46 50 -185.5 228t-140.5 211z" />
    <glyph glyph-name="afii10088" unicode="&#x446;" horiz-adv-x="1094" 
d="M111 942l201 27q-13 -201 -13 -512q0 -145 -4 -329h424q-4 180 -4 329q0 286 -35 485l198 27q-12 -209 -12 -512q0 -176 10 -329h163q0 -46 -23 -244t-23 -299h-114q0 127 -3 415h-744q15 200 15 457q0 288 -36 485z" />
    <glyph glyph-name="afii10089" unicode="&#x447;" horiz-adv-x="964" 
d="M44 946l176 25q-9 -95 -9 -153q0 -182 48 -246t168 -64q147 0 239 46q-6 232 -30 388l193 27q-12 -209 -12 -512q0 -231 14 -457h-178q15 184 15 436q-114 -63 -281 -63q-170 0 -250 79q-81 80 -81 327q0 51 -12 167z" />
    <glyph glyph-name="afii10090" unicode="&#x448;" horiz-adv-x="1533" 
d="M111 942l196 27q-12 -209 -12 -512q0 -145 -4 -329h395q6 202 6 329q0 286 -35 485l196 27q-13 -201 -13 -512q0 -136 7 -329h394q-4 180 -4 329q0 286 -35 485l196 27q-12 -208 -12 -512q0 -231 14 -457h-1268q14 207 14 457q0 286 -35 485z" />
    <glyph glyph-name="afii10091" unicode="&#x449;" horiz-adv-x="1632" 
d="M111 942l196 27q-12 -209 -12 -512q0 -99 -5 -329h395q6 202 6 329q0 286 -35 485l196 27q-12 -209 -12 -512q0 -122 6 -329h395q-4 180 -4 329q0 286 -35 485l196 27q-13 -201 -13 -512q0 -181 9 -329h183q0 -55 -24 -247q-23 -196 -23 -296h-113q0 127 -3 415h-1283
q15 200 15 457q0 286 -35 485z" />
    <glyph glyph-name="afii10092" unicode="&#x44a;" horiz-adv-x="1160" 
d="M22 804l6 144q266 0 520 21q-29 -197 -29 -379q72 19 138 19q439 0 439 -291q0 -155 -127 -240q-127 -84 -286 -84q-81 0 -324 6q10 190 10 457q0 141 15 374q-194 -27 -362 -27zM519 473q0 -197 4 -345q79 -12 163 -12q256 0 256 185q0 187 -285 187q-53 0 -138 -15z
" />
    <glyph glyph-name="afii10093" unicode="&#x44b;" horiz-adv-x="1312" 
d="M111 942l188 27q-8 -134 -8 -379q69 19 135 19q428 0 428 -291q0 -155 -124 -240q-123 -84 -281 -84q-81 0 -314 6q11 209 11 457q0 286 -35 485zM291 473q0 -197 4 -345q73 -12 157 -12q248 0 248 185q0 187 -274 187q-52 0 -135 -15zM985 942l192 27q-13 -201 -13 -512
q0 -239 15 -457h-173q14 207 14 457q0 286 -35 485z" />
    <glyph glyph-name="afii10094" unicode="&#x44c;" horiz-adv-x="958" 
d="M111 942l194 27q-9 -126 -9 -379q102 19 170 19q428 0 428 -291q0 -155 -127 -240q-127 -84 -286 -84q-81 0 -345 6q10 190 10 457q0 286 -35 485zM296 473q0 -197 4 -345q101 -12 184 -12q256 0 256 185q0 187 -274 187q-52 0 -170 -15z" />
    <glyph glyph-name="afii10095" unicode="&#x44d;" horiz-adv-x="958" 
d="M66 4l18 151q128 -48 311 -48q145 0 224 94q80 95 80 235q-203 0 -472 -8l6 150q239 -10 466 -10q-53 275 -325 275q-136 0 -275 -39l16 138q129 41 273 41q471 0 471 -487q0 -227 -130 -375t-374 -148q-161 0 -289 31z" />
    <glyph glyph-name="afii10096" unicode="&#x44e;" horiz-adv-x="1530" 
d="M111 942l197 27q-6 -97 -13 -401h240q31 204 161 315t304 111q183 0 308 -128q124 -127 124 -362q0 -254 -137 -399q-137 -144 -337 -144q-185 0 -307 125q-123 127 -124 354h-232q0 -224 15 -440h-178q15 200 15 457q0 288 -36 485zM693 486q0 -158 74 -279
q73 -120 214 -120q137 0 209 113q73 113 73 269q0 162 -74 281q-73 118 -212 118q-138 0 -211 -112t-73 -270z" />
    <glyph glyph-name="afii10097" unicode="&#x44f;" horiz-adv-x="1028" 
d="M44 0q81 244 136 344q55 99 124 113v10q-204 49 -204 218q0 278 355 278q147 0 316 -13l124 21q-14 -221 -14 -512q0 -317 14 -459h-175q8 178 8 397q-90 8 -180 8q-151 0 -202 -65q-51 -64 -135 -340h-167zM261 678q0 -159 288 -159q92 0 179 4q0 187 -8 299
q-114 13 -286 13q-173 0 -173 -157z" />
    <glyph glyph-name="uni0450" unicode="&#x450;" horiz-adv-x="1051" 
d="M98 460q0 103 30 198t86.5 170.5t145.5 120.5t198 45q146 0 244.5 -77t133.5 -197.5t11 -259.5h-688q17 -186 114.5 -273t279.5 -87h20h24t24 0.5t26.5 1.5t25 3t25.5 5.5t21 8t19 10.5q9 6 19 19t20.5 18.5t30.5 5.5q39 0 39 -62q0 -41 -32.5 -70.5t-84.5 -43t-98 -19
t-90 -5.5q-130 0 -235 38.5t-171.5 105.5t-102 155t-35.5 189zM240 1410h216q0 -12 90 -160q90 -149 90 -164h-120q0 16 -138 164t-138 160zM265 571h521q0 142 -61.5 218.5t-177.5 76.5q-240 0 -282 -295z" />
    <glyph glyph-name="afii10071" unicode="&#x451;" horiz-adv-x="1051" 
d="M98 460q0 103 30 198t86.5 170.5t145.5 120.5t198 45q146 0 244.5 -77t133.5 -197.5t11 -259.5h-688q17 -186 114.5 -273t279.5 -87h20h24t24 0.5t26.5 1.5t25 3t25.5 5.5t21 8t19 10.5q9 6 19 19t20.5 18.5t30.5 5.5q39 0 39 -62q0 -41 -32.5 -70.5t-84.5 -43t-98 -19
t-90 -5.5q-130 0 -235 38.5t-171.5 105.5t-102 155t-35.5 189zM265 571h521q0 142 -61.5 218.5t-177.5 76.5q-240 0 -282 -295zM281 1238q0 46 31.5 78.5t84.5 32.5q44 0 69 -27.5t25 -70.5q0 -48 -31.5 -81.5t-83.5 -33.5q-44 0 -69.5 29t-25.5 73zM659 1238
q0 46 31.5 78.5t84.5 32.5q44 0 69 -27.5t25 -70.5q0 -48 -31.5 -81.5t-83.5 -33.5q-44 0 -69.5 29t-25.5 73z" />
    <glyph glyph-name="afii10099" unicode="&#x452;" horiz-adv-x="1107" 
d="M0 1096l6 102h130q-11 151 -16 209l188 10q-7 -91 -7 -219h333l-6 -102h-329q-2 -180 -2 -327h10q101 113 317 113q189 0 280 -154q92 -154 92 -393q0 -287 -121 -507t-336 -285l-39 122q155 52 241 225q86 172 86 405q0 198 -63 324q-61 127 -197 127q-180 0 -264 -112
q0 -540 8 -634h-171q9 264 9 746q0 125 -9 350h-140z" />
    <glyph glyph-name="afii10100" unicode="&#x453;" horiz-adv-x="780" 
d="M111 0q15 200 15 457q0 289 -15 493h649l-6 -154q-181 17 -484 17q5 -223 5 -356q0 -231 14 -457h-178zM360 1086q0 16 90 164t90 160h216q0 -12 -138 -160t-138 -164h-120z" />
    <glyph glyph-name="afii10101" unicode="&#x454;" horiz-adv-x="946" 
d="M99 461q0 236 128 379q129 143 376 143q161 0 248 -31l-18 -150q-97 47 -280 47q-246 0 -294 -287q268 2 493 8l-6 -140q-256 10 -487 10q15 -326 325 -326q136 0 296 39l-16 -139q-150 -41 -294 -41q-259 0 -365 127t-106 361z" />
    <glyph glyph-name="afii10102" unicode="&#x455;" horiz-adv-x="858" 
d="M102 123q0 50 45 50q17 0 28.5 -7t23 -19.5t21.5 -18.5q60 -39 171 -39q110 0 166.5 37.5t56.5 101.5q0 24 -14 46.5t-32.5 37.5t-48 30t-51 23.5t-50.5 18.5q-3 1 -5 1.5t-4.5 1.5t-4.5 2q-41 17 -61.5 26t-58.5 28.5t-58 34.5t-47.5 40t-41.5 49.5t-24.5 58t-10.5 71.5
q0 87 52.5 152t129.5 95t163 30q45 0 91.5 -6t98 -20t84 -44.5t32.5 -73.5q0 -26 -10 -39t-34 -17q-24 0 -45 23t-27 26q-60 40 -190 40q-95 0 -153 -37.5t-58 -96.5q0 -23 15 -45.5t35 -38.5t52.5 -33.5t54 -27t53.5 -22.5q2 -1 4 -1.5t4 -1.5l4 -2q62 -23 106.5 -46
t90.5 -58.5t72.5 -85t31.5 -111.5q0 -145 -90 -214t-278 -69q-44 0 -88 6t-92.5 21t-78.5 46.5t-30 76.5z" />
    <glyph glyph-name="afii10103" unicode="&#x456;" horiz-adv-x="446" 
d="M104 1231q0 55 39.5 91t92.5 36q47 0 76.5 -32t29.5 -78q-2 -57 -37.5 -92.5t-89.5 -35.5q-46 0 -78.5 33t-32.5 78zM133 0q27 86 22 866v21q0 82 69 82q64 0 64 -82q0 -20 -1 -153.5t-0.5 -221.5t3 -208.5t10.5 -198t21 -105.5h-188z" />
    <glyph glyph-name="afii10104" unicode="&#x457;" horiz-adv-x="446" 
d="M-75 1238q0 46 31.5 78.5t84.5 32.5q44 0 69 -27.5t25 -70.5q0 -48 -31.5 -81.5t-83.5 -33.5q-44 0 -69.5 29t-25.5 73zM111 942l200 27q-12 -209 -12 -512q0 -231 14 -457h-181q14 207 14 457q0 286 -35 485zM303 1238q0 46 31.5 78.5t84.5 32.5q44 0 69 -27.5t25 -70.5
q0 -48 -31.5 -81.5t-83.5 -33.5q-44 0 -69.5 29t-25.5 73z" />
    <glyph glyph-name="afii10105" unicode="&#x458;" horiz-adv-x="446" 
d="M-104 -382q0 22 24 43t61 45.5t53 43.5q31 38 53 71.5t38 62t26 68.5t16 67.5t8.5 84.5t3.5 94.5t2 119.5q1 50 1 77q-6 334 -49 581h187q-12 -117 -14 -290.5t0 -308.5t-9.5 -278.5t-40.5 -230.5q-67 -142 -158 -229.5t-141 -87.5q-26 0 -43.5 17.5t-17.5 49.5z
M127 1229q0 53 35 90t93 37q51 0 78 -34t27 -76q0 -54 -34.5 -90t-88.5 -36q-51 0 -80.5 31.5t-29.5 77.5z" />
    <glyph glyph-name="afii10106" unicode="&#x459;" horiz-adv-x="1445" 
d="M9 143q37 3 92.5 70.5t114 175.5t115.5 258t95 303h290l135 19q-8 -134 -8 -379q44 19 110 19q428 0 428 -291q0 -155 -124 -240q-123 -84 -281 -84q-81 0 -294 6q5 222 5 457q0 233 3 368h-167q-59 -228 -141 -417.5t-178.5 -307t-184.5 -117.5zM843 473q0 -197 4 -345
q49 -12 132 -12q248 0 248 185q0 187 -274 187q-51 0 -110 -15z" />
    <glyph glyph-name="afii10107" unicode="&#x45a;" horiz-adv-x="1488" 
d="M111 942l198 27q-6 -97 -13 -401h436q-6 224 -33 374l195 27q-8 -134 -8 -379q44 19 110 19q428 0 428 -291q0 -155 -124 -240q-123 -84 -281 -84q-81 0 -294 6q9 190 9 440h-438q0 -224 15 -440h-179q15 200 15 457q0 288 -36 485zM886 473q0 -197 4 -345
q50 -12 132 -12q248 0 248 185q0 187 -274 187q-52 0 -110 -15z" />
    <glyph glyph-name="afii10108" unicode="&#x45b;" horiz-adv-x="1067" 
d="M0 1096l6 102h130q-11 151 -16 209l185 10q-4 -80 -4 -219h333l-6 -102h-329q-2 -222 -2 -338h6q139 132 311 132q156 0 239 -72q84 -72 84 -268q0 -1 -2 -73q-2 -70 -2 -72q0 -181 4 -405h-172q22 199 22 476q0 160 -54 216q-53 56 -157 56q-152 0 -273 -103
q0 -397 8 -645h-171q9 264 9 746q0 144 -9 350h-140z" />
    <glyph glyph-name="afii10109" unicode="&#x45c;" horiz-adv-x="999" 
d="M111 942l198 27q-13 -185 -13 -425q80 -2 106 -2q222 0 312 362q7 25 22 46h165q-5 -11 -34 -85q-114 -313 -256 -367v-10q95 -29 158 -117q65 -89 123 -261q17 -50 44 -110h-181q-5 10 -24 52q-65 211 -137 290q-74 81 -192 81q-20 0 -106 -2q0 -231 15 -421h-179
q15 200 15 457q0 288 -36 485zM437 1086q0 16 90 164t90 160h216q0 -12 -138 -160t-138 -164h-120z" />
    <glyph glyph-name="uni045D" unicode="&#x45d;" horiz-adv-x="1083" 
d="M111 942l198 27q-13 -178 -13 -471q0 -102 -6 -256h10q22 63 272 362q234 280 234 338l142 27q-12 -209 -12 -512q0 -231 14 -457h-179q15 171 15 457q0 89 10 243h-10q-21 -69 -273 -363q-239 -281 -239 -337h-142q14 207 14 457q0 286 -35 485zM277 1410h216
q0 -12 90 -160q90 -149 90 -164h-120q0 16 -138 164t-138 160z" />
    <glyph glyph-name="afii10110" unicode="&#x45e;" horiz-adv-x="952" 
d="M-10.5 909q-1.5 26 11.5 48.5t42 22.5q45 0 72 -60q15 -38 46 -114t103.5 -251t148.5 -362h11q41 144 127 365q74 190 128 392h183q0 -37 -205 -469q-88 -185 -132.5 -312.5t-54.5 -184.5q-18 -87 -36 -147.5t-43.5 -110.5t-55.5 -80.5t-74.5 -53t-98 -33t-127.5 -14.5
l-6 144q148 0 229 84q73 76 75 188q0 48 -14 99q-28 99 -161 413t-159 387q-8 23 -9.5 49zM194 1378l144 19q0 -200 172 -200q101 0 137 51q36 52 36 149l134 -21q0 -111 -70 -199q-69 -88 -237 -88q-174 0 -245 89q-71 91 -71 200z" />
    <glyph glyph-name="afii10193" unicode="&#x45f;" horiz-adv-x="1026" 
d="M111 942l201 27q-13 -201 -13 -512q0 -145 -4 -329h435q-4 180 -4 329q0 286 -35 485l200 27q-12 -209 -12 -512q0 -231 14 -457h-304q-26 -280 -26 -415h-113q0 121 -26 415h-292q15 200 15 457q0 288 -36 485z" />
    <glyph glyph-name="afii10146" unicode="&#x462;" horiz-adv-x="1339" 
d="M22 1039l5 143h381q0 165 -4 244h190q-4 -68 -4 -244h451l-5 -141q-79 4 -449 10q-8 -168 -8 -295q55 4 177 4q224 0 370 -84q147 -82 147 -279q0 -194 -163 -299q-164 -104 -444 -104q-78 0 -264 6q14 322 14 684q0 151 -6 367q-158 -1 -388 -12zM577 620q0 -267 6 -477
q41 -9 89 -9q242 0 337 60t95 186q0 246 -436 246q-52 0 -91 -6z" />
    <glyph glyph-name="afii10194" unicode="&#x463;" horiz-adv-x="1137" 
d="M44 812l6 145q195 -11 281 -10q0 279 -27 460l198 10q-21 -133 -24 -470q196 0 398 7l-7 -145q-251 11 -395 11q-1 -101 -1 -250q101 19 168 19q432 0 432 -281q0 -154 -126 -234q-127 -80 -287 -80q-81 0 -345 6q10 190 10 457q0 221 4 362q-124 0 -285 -7zM473 453
q0 -194 4 -322q100 -12 188 -12q256 0 256 172q0 177 -275 177q-58 0 -173 -15z" />
    <glyph glyph-name="afii10147" unicode="&#x472;" horiz-adv-x="1421" 
d="M99 618q0 328 189 518q189 192 437 192q239 0 417 -178q180 -177 180 -479q0 -323 -189 -517q-189 -193 -437 -193q-238 0 -418 177q-179 179 -179 480zM271 617q8 -249 143 -383q137 -134 311 -134q159 0 287 141q128 142 137 376h-878zM278 743h865q-25 214 -157 330
q-131 116 -290 116q-148 0 -269 -120q-122 -120 -149 -326z" />
    <glyph glyph-name="afii10195" unicode="&#x473;" horiz-adv-x="1144" 
d="M99 446q0 254 147 401q148 147 347 147q185 0 319 -131q133 -130 133 -359q0 -248 -144 -396q-143 -147 -349 -147q-196 0 -325 132q-128 133 -128 353zM256 445q5 -144 89 -251q86 -107 229 -107q149 0 229 110q79 109 84 248h-631zM264 560h610q-21 148 -97.5 228
t-206.5 80q-133 0 -210.5 -80.5t-95.5 -227.5z" />
    <glyph glyph-name="afii10148" unicode="&#x474;" horiz-adv-x="1178" 
d="M11 1302h190q0 -72 165 -570t165 -532h10q0 40 21 125q19 76 47 171q58 191 133 355q87 191 190.5 322.5t213.5 165.5l10 -180q-111 -73 -266 -359q-82 -157 -152 -346q-31 -84 -79 -244q-45 -154 -45 -210h-165q0 56 -219 642q-219 588 -219 660z" />
    <glyph glyph-name="afii10196" unicode="&#x475;" horiz-adv-x="995" 
d="M44 950h194q0 -48 120 -381t120 -381q0 -224 15 -440h-179q15 200 15 457q0 288 -36 485zM886 473q0 -197 4 -345
q50 -12 132 -12q248 0 248 185q0 187 -274 187q-52 0 -110 -15z" />
    <glyph glyph-name="afii10108" unicode="&#x45b;" horiz-adv-x="1067" 
d="M0 1096l6 102h130q-11 151 -16 209l185 10q-4 -80 -4 -219h333l-6 -102h-329q-2 -222 -2 -338h6q139 132 311 132q156 0 239 -72q84 -72 84 -268q0 -1 -2 -73q-2 -70 -2 -72q0 -181 4 -405h-172q22 199 22 476q0 160 -54 216q-53 56 -157 56q-152 0 -273 -103
q0 -397 8 -645h-171q9 264 9 746q0 144 -9 350h-140z" />
    <glyph glyph-name="afii10109" unicode="&#x45c;" horiz-adv-x="999" 
d="M111 942l198 27q-13 -185 -13 -425q80 -2 106 -2q222 0 312 362q7 25 22 46h165q-5 -11 -34 -85q-114 -313 -256 -367v-10q95 -29 158 -117q65 -89 123 -261q17 -50 44 -110h-181q-5 10 -24 52q-65 211 -137 290q-74 81 -192 81q-20 0 -106 -2q0 -231 15 -421h-179
q15 200 15 457q0 288 -36 485zM437 1086q0 16 90 164t90 160h216q0 -12 -138 -160t-138 -164h-120z" />
    <glyph glyph-name="uni045D" unicode="&#x45d;" horiz-adv-x="1083" 
d="M111 942l198 27q-13 -178 -13 -471q0 -102 -6 -256h10q22 63 272 362q234 280 234 338l142 27q-12 -209 -12 -512q0 -231 14 -457h-179q15 171 15 457q0 89 10 243h-10q-21 -69 -273 -363q-239 -281 -239 -337h-142q14 207 14 457q0 286 -35 485zM277 1410h216
q0 -12 90 -160q90 -149 90 -164h-120q0 16 -138 164t-138 160z" />
    <glyph glyph-name="afii10110" unicode="&#x45e;" horiz-adv-x="952" 
d="M-10.5 909q-1.5 26 11.5 48.5t42 22.5q45 0 72 -60q15 -38 46 -114t103.5 -251t148.5 -362h11q41 144 127 365q74 190 128 392h183q0 -37 -205 -469q-88 -185 -132.5 -312.5t-54.5 -184.5q-18 -87 -36 -147.5t-43.5 -110.5t-55.5 -80.5t-74.5 -53t-98 -33t-127.5 -14.5
l-6 144q148 0 229 84q73 76 75 188q0 48 -14 99q-28 99 -161 413t-159 387q-8 23 -9.5 49zM194 1378l144 19q0 -200 172 -200q101 0 137 51q36 52 36 149l134 -21q0 -111 -70 -199q-69 -88 -237 -88q-174 0 -245 89q-71 91 -71 200z" />
    <glyph glyph-name="afii10193" unicode="&#x45f;" horiz-adv-x="1026" 
d="M111 942l201 27q-13 -201 -13 -512q0 -145 -4 -329h435q-4 180 -4 329q0 286 -35 485l200 27q-12 -209 -12 -512q0 -231 14 -457h-304q-26 -280 -26 -415h-113q0 121 -26 415h-292q15 200 15 457q0 288 -36 485z" />
    <glyph glyph-name="afii10146" unicode="&#x462;" horiz-adv-x="1339" 
d="M22 1039l5 143h381q0 165 -4 244h190q-4 -68 -4 -244h451l-5 -141q-79 4 -449 10q-8 -168 -8 -295q55 4 177 4q224 0 370 -84q147 -82 147 -279q0 -194 -163 -299q-164 -104 -444 -104q-78 0 -264 6q14 322 14 684q0 151 -6 367q-158 -1 -388 -12zM577 620q0 -267 6 -477
q41 -9 89 -9q242 0 337 60t95 186q0 246 -436 246q-52 0 -91 -6z" />
    <glyph glyph-name="afii10194" unicode="&#x463;" horiz-adv-x="1137" 
d="M44 812l6 145q195 -11 281 -10q0 279 -27 460l198 10q-21 -133 -24 -470q196 0 398 7l-7 -145q-251 11 -395 11q-1 -101 -1 -250q101 19 168 19q432 0 432 -281q0 -154 -126 -234q-127 -80 -287 -80q-81 0 -345 6q10 190 10 457q0 221 4 362q-124 0 -285 -7zM473 453
q0 -194 4 -322q100 -12 188 -12q256 0 256 172q0 177 -275 177q-58 0 -173 -15z" />
    <glyph glyph-name="afii10147" unicode="&#x472;" horiz-adv-x="1421" 
d="M99 618q0 328 189 518q189 192 437 192q239 0 417 -178q180 -177 180 -479q0 -323 -189 -517q-189 -193 -437 -193q-238 0 -418 177q-179 179 -179 480zM271 617q8 -249 143 -383q137 -134 311 -134q159 0 287 141q128 142 137 376h-878zM278 743h865q-25 214 -157 330
q-131 116 -290 116q-148 0 -269 -120q-122 -120 -149 -326z" />
    <glyph glyph-name="afii10195" unicode="&#x473;" horiz-adv-x="1144" 
d="M99 446q0 254 147 401q148 147 347 147q185 0 319 -131q133 -130 133 -359q0 -248 -144 -396q-143 -147 -349 -147q-196 0 -325 132q-128 133 -128 353zM256 445q5 -144 89 -251q86 -107 229 -107q149 0 229 110q79 109 84 248h-631zM264 560h610q-21 148 -97.5 228
t-206.5 80q-133 0 -210.5 -80.5t-95.5 -227.5z" />
    <glyph glyph-name="afii10148" unicode="&#x474;" horiz-adv-x="1178" 
d="M11 1302h190q0 -72 165 -570t165 -532h10q0 40 21 125q19 76 47 171q58 191 133 355q87 191 190.5 322.5t213.5 165.5l10 -180q-111 -73 -266 -359q-82 -157 -152 -346q-31 -84 -79 -244q-45 -154 -45 -210h-165q0 56 -219 642q-219 588 -219 660z" />
    <glyph glyph-name="afii10196" unicode="&#x475;" horiz-adv-x="995" 
d="M44 950h194q0 -48 120 -381t120 -3818 40 101
q41 44 111 44q57 0 89.5 -36t32.5 -92q0 -60 -40 -104q-39 -45 -109 -45q-57 0 -90.5 38t-33.5 94z" />
    <glyph glyph-name="uni202F" unicode="&#x202f;" horiz-adv-x="338" 
 />
    <glyph glyph-name="guilsinglleft" unicode="&#x2039;" 
d="M74 435v116l223 226q46 45 68 52q25 9 45 -10q39 -38 -28 -116l-170 -210l170 -210q68 -76 28 -115q-13 -15 -28 -17t-31 9t-27 21t-27 28z" />
    <glyph glyph-name="guilsinglright" unicode="&#x203a;" 
d="M111 168q-40 39 28 115l170 210l-170 210q-67 78 -28 116q33 32 91 -21q4 -3 22 -21l223 -226v-116l-223 -226q-16 -18 -27 -28t-27 -21t-31 -9t-28 17z" />
    <glyph glyph-name="uni205F" unicode="&#x205f;" horiz-adv-x="422" 
 />
    <glyph glyph-name="Euro" unicode="&#x20ac;" horiz-adv-x="990" 
d="M14 477q0 33 104 33v6q0 61 6 94h-6q-104 0 -104 39t104 39h23q52 158 178.5 272.5t288.5 121.5q46 2 99.5 -4.5t108 -22.5t90 -49.5t35.5 -78.5q-5 -35 -14 -48.5t-35 -13.5q-20 0 -31 7t-22 22t-20 22q-57 32 -184 32q-108 0 -189.5 -74.5t-121.5 -185.5h300
q111 0 111 -39t-111 -39h-316v-61v-33h316q111 0 111 -39q0 -44 -111 -44h-304q32 -146 122.5 -227.5t242.5 -88.5q90 -11 172 26q11 5 32 29.5t46 20.5q28 0 39 -14t11 -41q0 -42 -29.5 -74.5t-76.5 -50.5t-97 -27t-97 -9q-224 0 -372.5 117.5t-188.5 338.5h-6
q-104 0 -104 44z" />
    <glyph glyph-name="trademark" unicode="&#x2122;" horiz-adv-x="1362" 
d="M38 1311l4 71h497l-4 -70q-110 5 -205 5q-1 -64 -1 -244q0 -144 5 -342h-91q6 171 6 342q0 147 -3 244q-74 0 -208 -6zM596 731q0 1 35 275t35 376h129q0 -62 80 -281q80 -217 80 -260h5q0 43 90 261t90 280h126q0 -106 24 -374q25 -263 25 -277h-94q0 107 -15 310
q-15 196 -17 266h-5l-20 -65q-28 -90 -117 -303q-67 -162 -67 -208h-67q0 48 -63 210q-85 222 -107 301q-13 39 -18 65h-5q-2 -69 -21 -282q-17 -209 -17 -294h-86z" />
    <glyph glyph-name="uniE000" unicode="&#xe000;" horiz-adv-x="970" 
d="M0 0v970h970v-970h-970z" />
    </font>
</defs>
</svg>
